<svg version="1.1" xmlns="http://www.w3.org/2000/svg" xmlns:xlink="http://www.w3.org/1999/xlink" width="600" height="250" style="width: 600px; height: 250px;"><defs><clipPath id="ChRRDJJVsxeL"><path fill="none" stroke="none" d=" M 31 33 L 595 33 L 595 215 L 31 215 L 31 33 Z"/></clipPath><clipPath id="DTUdWbGfUBpv"><path fill="none" stroke="none" d=" M 31 33 L 595 33 L 595 215 L 31 215 L 31 33 Z"/></clipPath></defs><g><g transform="scale(1,1) translate(0.5,0.5)"><rect fill="#FFFFFF" stroke="none" x="0" y="0" width="600" height="250"/><rect fill="#ffffff" stroke="none" x="0" y="0" width="600" height="250"/><rect fill="#FFFFFF" stroke="none" x="31" y="33" width="564" height="182"/><rect fill="#ffffff" stroke="none" x="31" y="33" width="564" height="182"/><g><rect fill="none" stroke="#e5e5e5" x="31" y="33" width="564" height="182" stroke-linejoin="bevel" stroke-miterlimit="10"/></g><g clip-path="url(#ChRRDJJVsxeL)"><g><g><path fill="none" stroke="#e5e5e5" paint-order="fill stroke markers" d=" M 93 215 L 93 33" stroke-linejoin="bevel" stroke-miterlimit="10"/><path fill="none" stroke="#e5e5e5" paint-order="fill stroke markers" d=" M 167 215 L 167 33" stroke-linejoin="bevel" stroke-miterlimit="10"/><path fill="none" stroke="#e5e5e5" paint-order="fill stroke markers" d=" M 240 215 L 240 33" stroke-linejoin="bevel" stroke-miterlimit="10"/><path fill="none" stroke="#e5e5e5" paint-order="fill stroke markers" d=" M 313 215 L 313 33" stroke-linejoin="bevel" stroke-miterlimit="10"/><path fill="none" stroke="#e5e5e5" paint-order="fill stroke markers" d=" M 386 215 L 386 33" stroke-linejoin="bevel" stroke-miterlimit="10"/><path fill="none" stroke="#e5e5e5" paint-order="fill stroke markers" d=" M 459 215 L 459 33" stroke-linejoin="bevel" stroke-miterlimit="10"/><path fill="none" stroke="#e5e5e5" paint-order="fill stroke markers" d=" M 533 215 L 533 33" stroke-linejoin="bevel" stroke-miterlimit="10"/></g><g><path fill="none" stroke="#e5e5e5" paint-order="fill stroke markers" d=" M 31 179 L 595 179" stroke-linejoin="bevel" stroke-miterlimit="10"/><path fill="none" stroke="#e5e5e5" paint-order="fill stroke markers" d=" M 31 142 L 595 142" stroke-linejoin="bevel" stroke-miterlimit="10"/><path fill="none" stroke="#e5e5e5" paint-order="fill stroke markers" d=" M 31 106 L 595 106" stroke-linejoin="bevel" stroke-miterlimit="10"/><path fill="none" stroke="#e5e5e5" paint-order="fill stroke markers" d=" M 31 69 L 595 69" stroke-linejoin="bevel" stroke-miterlimit="10"/><path fill="none" stroke="#e5e5e5" paint-order="fill stroke markers" d=" M 31 33 L 595 33" stroke-linejoin="bevel" stroke-miterlimit="10"/></g><g><path fill="none" stroke="none"/><rect fill="#1f77b4" stroke="none" x="60.2987012987013" y="188.41056315345315" width="65.92207792207793" height="26.589436846546846"/><path fill="none" stroke="#1f77b4" paint-order="fill stroke markers" d=" M 60.2987012987013 188.41056315345315 L 126.22077922077924 188.41056315345315 L 126.22077922077924 215 L 60.2987012987013 215 L 60.2987012987013 188.41056315345315 Z" stroke-linejoin="bevel" stroke-miterlimit="10"/><rect fill="#1f77b4" stroke="none" x="133.5454545454546" y="188.81050800228604" width="65.9220779220779" height="26.189491997713958"/><path fill="none" stroke="#1f77b4" paint-order="fill stroke markers" d=" M 133.5454545454546 188.81050800228604 L 199.4675324675325 188.81050800228604 L 199.4675324675325 215 L 133.5454545454546 215 L 133.5454545454546 188.81050800228604 Z" stroke-linejoin="bevel" stroke-miterlimit="10"/><rect fill="#1f77b4" stroke="none" x="206.79220779220782" y="189.70693611173914" width="65.92207792207796" height="25.29306388826086"/><path fill="none" stroke="#1f77b4" paint-order="fill stroke markers" d=" M 206.79220779220782 189.70693611173914 L 272.7142857142858 189.70693611173914 L 272.7142857142858 215 L 206.79220779220782 215 L 206.79220779220782 189.70693611173914 Z" stroke-linejoin="bevel" stroke-miterlimit="10"/><rect fill="#1f77b4" stroke="none" x="280.038961038961" y="189.54833729237436" width="65.92207792207796" height="25.451662707625644"/><path fill="none" stroke="#1f77b4" paint-order="fill stroke markers" d=" M 280.038961038961 189.54833729237436 L 345.961038961039 189.54833729237436 L 345.961038961039 215 L 280.038961038961 215 L 280.038961038961 189.54833729237436 Z" stroke-linejoin="bevel" stroke-miterlimit="10"/><rect fill="#1f77b4" stroke="none" x="353.28571428571433" y="190.25168857825292" width="65.92207792207796" height="24.748311421747076"/><path fill="none" stroke="#1f77b4" paint-order="fill stroke markers" d=" M 353.28571428571433 190.25168857825292 L 419.2077922077923 190.25168857825292 L 419.2077922077923 215 L 353.28571428571433 215 L 353.28571428571433 190.25168857825292 Z" stroke-linejoin="bevel" stroke-miterlimit="10"/><rect fill="#1f77b4" stroke="none" x="426.53246753246754" y="189.10012323764784" width="65.92207792207796" height="25.899876762352164"/><path fill="none" stroke="#1f77b4" paint-order="fill stroke markers" d=" M 426.53246753246754 189.10012323764784 L 492.4545454545455 189.10012323764784 L 492.4545454545455 215 L 426.53246753246754 215 L 426.53246753246754 189.10012323764784 Z" stroke-linejoin="bevel" stroke-miterlimit="10"/><rect fill="#1f77b4" stroke="none" x="499.77922077922085" y="187.19004180442855" width="65.92207792207796" height="27.809958195571454"/><path fill="none" stroke="#1f77b4" paint-order="fill stroke markers" d=" M 499.77922077922085 187.19004180442855 L 565.7012987012988 187.19004180442855 L 565.7012987012988 215 L 499.77922077922085 215 L 499.77922077922085 187.19004180442855 Z" stroke-linejoin="bevel" stroke-miterlimit="10"/></g></g></g><g clip-path="url(#DTUdWbGfUBpv)"><g/></g><g><g fill="#444444"><path fill="none" stroke="black" paint-order="fill stroke markers" d=" M 31 215 L 595 215" stroke-linejoin="bevel" stroke-miterlimit="10"/><path fill="none" stroke="black" paint-order="fill stroke markers" d=" M 93 221 L 93 213" stroke-linejoin="bevel" stroke-miterlimit="10"/><path fill="none" stroke="black" paint-order="fill stroke markers" d=" M 167 221 L 167 213" stroke-linejoin="bevel" stroke-miterlimit="10"/><path fill="none" stroke="black" paint-order="fill stroke markers" d=" M 240 221 L 240 213" stroke-linejoin="bevel" stroke-miterlimit="10"/><path fill="none" stroke="black" paint-order="fill stroke markers" d=" M 313 221 L 313 213" stroke-linejoin="bevel" stroke-miterlimit="10"/><path fill="none" stroke="black" paint-order="fill stroke markers" d=" M 386 221 L 386 213" stroke-linejoin="bevel" stroke-miterlimit="10"/><path fill="none" stroke="black" paint-order="fill stroke markers" d=" M 459 221 L 459 213" stroke-linejoin="bevel" stroke-miterlimit="10"/><path fill="" stroke="black" paint-order="fill stroke markers" d=" M 533 221 L 533 213" stroke-linejoin="bevel" stroke-miterlimit="10"/><g transform="translate(93,226) rotate(-57.29577951308232,0,0)"><text fill="" stroke="none" font-family="helvetica" font-size="11pt" font-style="normal" font-weight="normal" text-decoration="normal" x="0" y="0" text-anchor="end" dominant-baseline="central">0.0</text><g transform="rotate(57.29577951308232,0,0) translate(-93,-226) translate(167,226) rotate(-57.29577951308232,0,0)"><text fill="" stroke="none" font-family="helvetica" font-size="11pt" font-style="normal" font-weight="normal" text-decoration="normal" x="0" y="0" text-anchor="end" dominant-baseline="central">0.2</text><g transform="rotate(57.29577951308232,0,0) translate(-167,-226) translate(240,226) rotate(-57.29577951308232,0,0)"><text fill="" stroke="none" font-family="helvetica" font-size="11pt" font-style="normal" font-weight="normal" text-decoration="normal" x="0" y="0" text-anchor="end" dominant-baseline="central">0.4</text><g transform="rotate(57.29577951308232,0,0) translate(-240,-226) translate(313,226) rotate(-57.29577951308232,0,0)"><text fill="" stroke="none" font-family="helvetica" font-size="11pt" font-style="normal" font-weight="normal" text-decoration="normal" x="0" y="0" text-anchor="end" dominant-baseline="central">0.5</text><g transform="rotate(57.29577951308232,0,0) translate(-313,-226) translate(386,226) rotate(-57.29577951308232,0,0)"><text fill="" stroke="none" font-family="helvetica" font-size="11pt" font-style="normal" font-weight="normal" text-decoration="normal" x="0" y="0" text-anchor="end" dominant-baseline="central">0.6</text><g transform="rotate(57.29577951308232,0,0) translate(-386,-226) translate(459,226) rotate(-57.29577951308232,0,0)"><text fill="" stroke="none" font-family="helvetica" font-size="11pt" font-style="normal" font-weight="normal" text-decoration="normal" x="0" y="0" text-anchor="end" dominant-baseline="central">0.8</text><g transform="rotate(57.29577951308232,0,0) translate(-459,-226) translate(533,226) rotate(-57.29577951308232,0,0)"><text fill="" stroke="none" font-family="helvetica" font-size="11pt" font-style="normal" font-weight="normal" text-decoration="normal" x="0" y="0" text-anchor="end" dominant-baseline="central">1.0</text><g transform="rotate(57.29577951308232,0,0) translate(-533,-226)"/></g></g></g></g></g></g></g></g><g fill="#444444"><path fill="none" stroke="black" paint-order="fill stroke markers" d=" M 31 215 L 31 33" stroke-linejoin="bevel" stroke-miterlimit="10"/><path fill="none" stroke="black" paint-order="fill stroke markers" d=" M 25 215 L 33 215" stroke-linejoin="bevel" stroke-miterlimit="10"/><path fill="none" stroke="black" paint-order="fill stroke markers" d=" M 25 179 L 33 179" stroke-linejoin="bevel" stroke-miterlimit="10"/><path fill="none" stroke="black" paint-order="fill stroke markers" d=" M 25 142 L 33 142" stroke-linejoin="bevel" stroke-miterlimit="10"/><path fill="none" stroke="black" paint-order="fill stroke markers" d=" M 25 106 L 33 106" stroke-linejoin="bevel" stroke-miterlimit="10"/><path fill="none" stroke="black" paint-order="fill stroke markers" d=" M 25 69 L 33 69" stroke-linejoin="bevel" stroke-miterlimit="10"/><path fill="none" stroke="black" paint-order="fill stroke markers" d=" M 25 33 L 33 33" stroke-linejoin="bevel" stroke-miterlimit="10"/><path fill="none" stroke="black" paint-order="fill stroke markers" d=" M 27 215 L 31 215" stroke-linejoin="bevel" stroke-miterlimit="10"/><path fill="none" stroke="black" paint-order="fill stroke markers" d=" M 27 208 L 31 208" stroke-linejoin="bevel" stroke-miterlimit="10"/><path fill="none" stroke="black" paint-order="fill stroke markers" d=" M 27 200 L 31 200" stroke-linejoin="bevel" stroke-miterlimit="10"/><path fill="none" stroke="black" paint-order="fill stroke markers" d=" M 27 193 L 31 193" stroke-linejoin="bevel" stroke-miterlimit="10"/><path fill="none" stroke="black" paint-order="fill stroke markers" d=" M 27 186 L 31 186" stroke-linejoin="bevel" stroke-miterlimit="10"/><path fill="none" stroke="black" paint-order="fill stroke markers" d=" M 27 179 L 31 179" stroke-linejoin="bevel" stroke-miterlimit="10"/><path fill="none" stroke="black" paint-order="fill stroke markers" d=" M 27 171 L 31 171" stroke-linejoin="bevel" stroke-miterlimit="10"/><path fill="none" stroke="black" paint-order="fill stroke markers" d=" M 27 164 L 31 164" stroke-linejoin="bevel" stroke-miterlimit="10"/><path fill="none" stroke="black" paint-order="fill stroke markers" d=" M 27 157 L 31 157" stroke-linejoin="bevel" stroke-miterlimit="10"/><path fill="none" stroke="black" paint-order="fill stroke markers" d=" M 27 149 L 31 149" stroke-linejoin="bevel" stroke-miterlimit="10"/><path fill="none" stroke="black" paint-order="fill stroke markers" d=" M 27 142 L 31 142" stroke-linejoin="bevel" stroke-miterlimit="10"/><path fill="none" stroke="black" paint-order="fill stroke markers" d=" M 27 135 L 31 135" stroke-linejoin="bevel" stroke-miterlimit="10"/><path fill="none" stroke="black" paint-order="fill stroke markers" d=" M 27 128 L 31 128" stroke-linejoin="bevel" stroke-miterlimit="10"/><path fill="none" stroke="black" paint-order="fill stroke markers" d=" M 27 120 L 31 120" stroke-linejoin="bevel" stroke-miterlimit="10"/><path fill="none" stroke="black" paint-order="fill stroke markers" d=" M 27 113 L 31 113" stroke-linejoin="bevel" stroke-miterlimit="10"/><path fill="none" stroke="black" paint-order="fill stroke markers" d=" M 27 106 L 31 106" stroke-linejoin="bevel" stroke-miterlimit="10"/><path fill="none" stroke="black" paint-order="fill stroke markers" d=" M 27 99 L 31 99" stroke-linejoin="bevel" stroke-miterlimit="10"/><path fill="none" stroke="black" paint-order="fill stroke markers" d=" M 27 91 L 31 91" stroke-linejoin="bevel" stroke-miterlimit="10"/><path fill="none" stroke="black" paint-order="fill stroke markers" d=" M 27 84 L 31 84" stroke-linejoin="bevel" stroke-miterlimit="10"/><path fill="none" stroke="black" paint-order="fill stroke markers" d=" M 27 77 L 31 77" stroke-linejoin="bevel" stroke-miterlimit="10"/><path fill="none" stroke="black" paint-order="fill stroke markers" d=" M 27 69 L 31 69" stroke-linejoin="bevel" stroke-miterlimit="10"/><path fill="none" stroke="black" paint-order="fill stroke markers" d=" M 27 62 L 31 62" stroke-linejoin="bevel" stroke-miterlimit="10"/><path fill="none" stroke="black" paint-order="fill stroke markers" d=" M 27 55 L 31 55" stroke-linejoin="bevel" stroke-miterlimit="10"/><path fill="none" stroke="black" paint-order="fill stroke markers" d=" M 27 48 L 31 48" stroke-linejoin="bevel" stroke-miterlimit="10"/><path fill="none" stroke="black" paint-order="fill stroke markers" d=" M 27 40 L 31 40" stroke-linejoin="bevel" stroke-miterlimit="10"/><path fill="" stroke="black" paint-order="fill stroke markers" d=" M 27 33 L 31 33" stroke-linejoin="bevel" stroke-miterlimit="10"/><g transform="translate(20,215) rotate(0,0,0)"><text fill="" stroke="none" font-family="helvetica" font-size="8pt" font-style="normal" font-weight="normal" text-decoration="normal" x="0" y="0" text-anchor="end" dominant-baseline="central">0</text><g transform="rotate(0,0,0) translate(-20,-215) translate(20,179) rotate(0,0,0)"><text fill="" stroke="none" font-family="helvetica" font-size="8pt" font-style="normal" font-weight="normal" text-decoration="normal" x="0" y="0" text-anchor="end" dominant-baseline="central">20</text><g transform="rotate(0,0,0) translate(-20,-179) translate(20,142) rotate(0,0,0)"><text fill="" stroke="none" font-family="helvetica" font-size="8pt" font-style="normal" font-weight="normal" text-decoration="normal" x="0" y="0" text-anchor="end" dominant-baseline="central">40</text><g transform="rotate(0,0,0) translate(-20,-142) translate(20,106) rotate(0,0,0)"><text fill="" stroke="none" font-family="helvetica" font-size="8pt" font-style="normal" font-weight="normal" text-decoration="normal" x="0" y="0" text-anchor="end" dominant-baseline="central">60</text><g transform="rotate(0,0,0) translate(-20,-106) translate(20,69) rotate(0,0,0)"><text fill="" stroke="none" font-family="helvetica" font-size="8pt" font-style="normal" font-weight="normal" text-decoration="normal" x="0" y="0" text-anchor="end" dominant-baseline="central">80</text><g transform="rotate(0,0,0) translate(-20,-69) translate(20,33) rotate(0,0,0)"><text fill="" stroke="none" font-family="helvetica" font-size="8pt" font-style="normal" font-weight="normal" text-decoration="normal" x="0" y="0" text-anchor="end" dominant-baseline="central">100</text><g transform="rotate(0,0,0) translate(-20,-33)"/></g></g></g></g></g></g></g><g fill="#444444"><path fill="" stroke="none" d=""/><g transform="translate(31,28)"><path fill="none" stroke="none"/><text fill="" stroke="none" font-family="helvetica" font-size="12pt" font-style="normal" font-weight="bold" text-decoration="normal" x="0" y="0" text-anchor="start" dominant-baseline="text-after-edge">Deformation factor</text></g></g></g></g></g></svg>