<svg version="1.1" xmlns="http://www.w3.org/2000/svg" xmlns:xlink="http://www.w3.org/1999/xlink" width="1500" height="650" style="width: 1500px; height: 650px;"><defs><clipPath id="UgVaupvzbGsw"><path fill="none" stroke="none" d=" M 28 48 L 1495 48 L 1495 411 L 28 411 L 28 48 Z"/></clipPath><clipPath id="XTZcNszXWNpx"><path fill="none" stroke="none" d=" M 28 48 L 1495 48 L 1495 411 L 28 411 L 28 48 Z"/></clipPath></defs><g><g transform="scale(1,1) translate(0.5,0.5)"><rect fill="#FFFFFF" stroke="none" x="0" y="0" width="1500" height="650"/><rect fill="#ffffff" stroke="none" x="0" y="0" width="1500" height="650"/><rect fill="#FFFFFF" stroke="none" x="28" y="48" width="1467" height="363"/><rect fill="#ffffff" stroke="none" x="28" y="48" width="1467" height="363"/><g><rect fill="none" stroke="#e5e5e5" x="28" y="48" width="1467" height="363" stroke-linejoin="bevel" stroke-miterlimit="10"/></g><g clip-path="url(#UgVaupvzbGsw)"><g><g><path fill="none" stroke="#e5e5e5" paint-order="fill stroke markers" d=" M 128 411 L 128 48" stroke-linejoin="bevel" stroke-miterlimit="10"/><path fill="none" stroke="#e5e5e5" paint-order="fill stroke markers" d=" M 194 411 L 194 48" stroke-linejoin="bevel" stroke-miterlimit="10"/><path fill="none" stroke="#e5e5e5" paint-order="fill stroke markers" d=" M 260 411 L 260 48" stroke-linejoin="bevel" stroke-miterlimit="10"/><path fill="none" stroke="#e5e5e5" paint-order="fill stroke markers" d=" M 326 411 L 326 48" stroke-linejoin="bevel" stroke-miterlimit="10"/><path fill="none" stroke="#e5e5e5" paint-order="fill stroke markers" d=" M 484 411 L 484 48" stroke-linejoin="bevel" stroke-miterlimit="10"/><path fill="none" stroke="#e5e5e5" paint-order="fill stroke markers" d=" M 550 411 L 550 48" stroke-linejoin="bevel" stroke-miterlimit="10"/><path fill="none" stroke="#e5e5e5" paint-order="fill stroke markers" d=" M 616 411 L 616 48" stroke-linejoin="bevel" stroke-miterlimit="10"/><path fill="none" stroke="#e5e5e5" paint-order="fill stroke markers" d=" M 682 411 L 682 48" stroke-linejoin="bevel" stroke-miterlimit="10"/><path fill="none" stroke="#e5e5e5" paint-order="fill stroke markers" d=" M 841 411 L 841 48" stroke-linejoin="bevel" stroke-miterlimit="10"/><path fill="none" stroke="#e5e5e5" paint-order="fill stroke markers" d=" M 907 411 L 907 48" stroke-linejoin="bevel" stroke-miterlimit="10"/><path fill="none" stroke="#e5e5e5" paint-order="fill stroke markers" d=" M 973 411 L 973 48" stroke-linejoin="bevel" stroke-miterlimit="10"/><path fill="none" stroke="#e5e5e5" paint-order="fill stroke markers" d=" M 1039 411 L 1039 48" stroke-linejoin="bevel" stroke-miterlimit="10"/><path fill="none" stroke="#e5e5e5" paint-order="fill stroke markers" d=" M 1197 411 L 1197 48" stroke-linejoin="bevel" stroke-miterlimit="10"/><path fill="none" stroke="#e5e5e5" paint-order="fill stroke markers" d=" M 1263 411 L 1263 48" stroke-linejoin="bevel" stroke-miterlimit="10"/><path fill="none" stroke="#e5e5e5" paint-order="fill stroke markers" d=" M 1329 411 L 1329 48" stroke-linejoin="bevel" stroke-miterlimit="10"/><path fill="none" stroke="#e5e5e5" paint-order="fill stroke markers" d=" M 1395 411 L 1395 48" stroke-linejoin="bevel" stroke-miterlimit="10"/></g><g><path fill="none" stroke="#e5e5e5" paint-order="fill stroke markers" d=" M 28 338 L 1495 338" stroke-linejoin="bevel" stroke-miterlimit="10"/><path fill="none" stroke="#e5e5e5" paint-order="fill stroke markers" d=" M 28 266 L 1495 266" stroke-linejoin="bevel" stroke-miterlimit="10"/><path fill="none" stroke="#e5e5e5" paint-order="fill stroke markers" d=" M 28 193 L 1495 193" stroke-linejoin="bevel" stroke-miterlimit="10"/><path fill="none" stroke="#e5e5e5" paint-order="fill stroke markers" d=" M 28 121 L 1495 121" stroke-linejoin="bevel" stroke-miterlimit="10"/><path fill="none" stroke="#e5e5e5" paint-order="fill stroke markers" d=" M 28 48 L 1495 48" stroke-linejoin="bevel" stroke-miterlimit="10"/></g><g><path fill="none" stroke="none"/><rect fill="#1f77b4" stroke="none" x="97.982898289829" y="147.60173485550683" width="59.4194419441944" height="263.39826514449317"/><path fill="none" stroke="#1f77b4" paint-order="fill stroke markers" d=" M 97.982898289829 147.60173485550683 L 157.4023402340234 147.60173485550683 L 157.4023402340234 411 L 97.982898289829 411 L 97.982898289829 147.60173485550683 Z" stroke-linejoin="bevel" stroke-miterlimit="10"/><rect fill="#aec7e8" stroke="none" x="164.004500450045" y="113.33705904672644" width="59.41944194419443" height="297.66294095327356"/><path fill="none" stroke="#1f77b4" paint-order="fill stroke markers" d=" M 164.004500450045 113.33705904672644 L 223.42394239423942 113.33705904672644 L 223.42394239423942 411 L 164.004500450045 411 L 164.004500450045 113.33705904672644 Z" stroke-linejoin="bevel" stroke-miterlimit="10"/><rect fill="#ff7f0e" stroke="none" x="230.02610261026103" y="108.71166270341064" width="59.41944194419443" height="302.28833729658936"/><path fill="none" stroke="#1f77b4" paint-order="fill stroke markers" d=" M 230.02610261026103 108.71166270341064 L 289.44554455445547 108.71166270341064 L 289.44554455445547 411 L 230.02610261026103 411 L 230.02610261026103 108.71166270341064 Z" stroke-linejoin="bevel" stroke-miterlimit="10"/><rect fill="#ffbb78" stroke="none" x="296.047704770477" y="96.56886022969513" width="59.41944194419443" height="314.43113977030487"/><path fill="none" stroke="#1f77b4" paint-order="fill stroke markers" d=" M 296.047704770477 96.56886022969513 L 355.46714671467146 96.56886022969513 L 355.46714671467146 411 L 296.047704770477 411 L 296.047704770477 96.56886022969513 Z" stroke-linejoin="bevel" stroke-miterlimit="10"/><rect fill="#1f77b4" stroke="none" x="454.4995499549956" y="139.63331966540187" width="59.41944194419432" height="271.36668033459813"/><path fill="none" stroke="#1f77b4" paint-order="fill stroke markers" d=" M 454.4995499549956 139.63331966540187 L 513.9189918991899 139.63331966540187 L 513.9189918991899 411 L 454.4995499549956 411 L 454.4995499549956 139.63331966540187 Z" stroke-linejoin="bevel" stroke-miterlimit="10"/><rect fill="#aec7e8" stroke="none" x="520.5211521152115" y="114.29319402513028" width="59.41944194419443" height="296.7068059748697"/><path fill="none" stroke="#1f77b4" paint-order="fill stroke markers" d=" M 520.5211521152115 114.29319402513028 L 579.940594059406 114.29319402513028 L 579.940594059406 411 L 520.5211521152115 411 L 520.5211521152115 114.29319402513028 Z" stroke-linejoin="bevel" stroke-miterlimit="10"/><rect fill="#ff7f0e" stroke="none" x="586.5427542754275" y="108.3427934104572" width="59.41944194419443" height="302.6572065895428"/><path fill="none" stroke="#1f77b4" paint-order="fill stroke markers" d=" M 586.5427542754275 108.3427934104572 L 645.9621962196219 108.3427934104572 L 645.9621962196219 411 L 586.5427542754275 411 L 586.5427542754275 108.3427934104572 Z" stroke-linejoin="bevel" stroke-miterlimit="10"/><rect fill="#ffbb78" stroke="none" x="652.5643564356437" y="95.88369073827704" width="59.419441944194205" height="315.11630926172296"/><path fill="none" stroke="#1f77b4" paint-order="fill stroke markers" d=" M 652.5643564356437 95.88369073827704 L 711.9837983798379 95.88369073827704 L 711.9837983798379 411 L 652.5643564356437 411 L 652.5643564356437 95.88369073827704 Z" stroke-linejoin="bevel" stroke-miterlimit="10"/><rect fill="#1f77b4" stroke="none" x="811.016201620162" y="183.04882808713043" width="59.41944194419443" height="227.95117191286957"/><path fill="none" stroke="#1f77b4" paint-order="fill stroke markers" d=" M 811.016201620162 183.04882808713043 L 870.4356435643564 183.04882808713043 L 870.4356435643564 411 L 811.016201620162 411 L 811.016201620162 183.04882808713043 Z" stroke-linejoin="bevel" stroke-miterlimit="10"/><rect fill="#aec7e8" stroke="none" x="877.0378037803782" y="135.97092954589016" width="59.419441944194205" height="275.02907045410984"/><path fill="none" stroke="#1f77b4" paint-order="fill stroke markers" d=" M 877.0378037803782 135.97092954589016 L 936.4572457245724 135.97092954589016 L 936.4572457245724 411 L 877.0378037803782 411 L 877.0378037803782 135.97092954589016 Z" stroke-linejoin="bevel" stroke-miterlimit="10"/><rect fill="#ff7f0e" stroke="none" x="943.0594059405942" y="126.81114737405557" width="59.419441944194205" height="284.18885262594443"/><path fill="none" stroke="#1f77b4" paint-order="fill stroke markers" d=" M 943.0594059405942 126.81114737405557 L 1002.4788478847884 126.81114737405557 L 1002.4788478847884 411 L 943.0594059405942 411 L 943.0594059405942 126.81114737405557 Z" stroke-linejoin="bevel" stroke-miterlimit="10"/><rect fill="#ffbb78" stroke="none" x="1009.0810081008102" y="113.13900522810229" width="59.41944194419432" height="297.8609947718977"/><path fill="none" stroke="#1f77b4" paint-order="fill stroke markers" d=" M 1009.0810081008102 113.13900522810229 L 1068.5004500450045 113.13900522810229 L 1068.5004500450045 411 L 1009.0810081008102 411 L 1009.0810081008102 113.13900522810229 Z" stroke-linejoin="bevel" stroke-miterlimit="10"/><rect fill="#1f77b4" stroke="none" x="1167.5328532853289" y="229.7364556438988" width="59.419441944194205" height="181.2635443561012"/><path fill="none" stroke="#1f77b4" paint-order="fill stroke markers" d=" M 1167.5328532853289 229.7364556438988 L 1226.952295229523 229.7364556438988 L 1226.952295229523 411 L 1167.5328532853289 411 L 1167.5328532853289 229.7364556438988 Z" stroke-linejoin="bevel" stroke-miterlimit="10"/><rect fill="#aec7e8" stroke="none" x="1233.5544554455446" y="105.30578039249019" width="59.41944194419466" height="305.6942196075098"/><path fill="none" stroke="#1f77b4" paint-order="fill stroke markers" d=" M 1233.5544554455446 105.30578039249019 L 1292.9738973897392 105.30578039249019 L 1292.9738973897392 411 L 1233.5544554455446 411 L 1233.5544554455446 105.30578039249019 Z" stroke-linejoin="bevel" stroke-miterlimit="10"/><rect fill="#ff7f0e" stroke="none" x="1299.576057605761" y="105.91612097194798" width="59.419441944194205" height="305.083879028052"/><path fill="none" stroke="#1f77b4" paint-order="fill stroke markers" d=" M 1299.576057605761 105.91612097194798 L 1358.9954995499552 105.91612097194798 L 1358.9954995499552 411 L 1299.576057605761 411 L 1299.576057605761 105.91612097194798 Z" stroke-linejoin="bevel" stroke-miterlimit="10"/><rect fill="#ffbb78" stroke="none" x="1365.597659765977" y="100.21253757564324" width="59.419441944194205" height="310.78746242435676"/><path fill="none" stroke="#1f77b4" paint-order="fill stroke markers" d=" M 1365.597659765977 100.21253757564324 L 1425.0171017101711 100.21253757564324 L 1425.0171017101711 411 L 1365.597659765977 411 L 1365.597659765977 100.21253757564324 Z" stroke-linejoin="bevel" stroke-miterlimit="10"/></g></g></g><g clip-path="url(#XTZcNszXWNpx)"><g/></g><g><g fill="grey" stroke="lightgrey" stroke-linejoin="bevel" stroke-miterlimit="10" stroke-width="2"><path fill="none" stroke="black" paint-order="fill stroke markers" d=" M 28 411 L 1495 411" stroke-linejoin="bevel" stroke-miterlimit="10"/><path fill="none" stroke="black" paint-order="fill stroke markers" d=" M 128 417 L 128 409" stroke-linejoin="bevel" stroke-miterlimit="10"/><path fill="none" stroke="black" paint-order="fill stroke markers" d=" M 194 417 L 194 409" stroke-linejoin="bevel" stroke-miterlimit="10"/><path fill="none" stroke="black" paint-order="fill stroke markers" d=" M 260 417 L 260 409" stroke-linejoin="bevel" stroke-miterlimit="10"/><path fill="none" stroke="black" paint-order="fill stroke markers" d=" M 326 417 L 326 409" stroke-linejoin="bevel" stroke-miterlimit="10"/><path fill="none" stroke="black" paint-order="fill stroke markers" d=" M 484 417 L 484 409" stroke-linejoin="bevel" stroke-miterlimit="10"/><path fill="none" stroke="black" paint-order="fill stroke markers" d=" M 550 417 L 550 409" stroke-linejoin="bevel" stroke-miterlimit="10"/><path fill="none" stroke="black" paint-order="fill stroke markers" d=" M 616 417 L 616 409" stroke-linejoin="bevel" stroke-miterlimit="10"/><path fill="none" stroke="black" paint-order="fill stroke markers" d=" M 682 417 L 682 409" stroke-linejoin="bevel" stroke-miterlimit="10"/><path fill="none" stroke="black" paint-order="fill stroke markers" d=" M 841 417 L 841 409" stroke-linejoin="bevel" stroke-miterlimit="10"/><path fill="none" stroke="black" paint-order="fill stroke markers" d=" M 907 417 L 907 409" stroke-linejoin="bevel" stroke-miterlimit="10"/><path fill="none" stroke="black" paint-order="fill stroke markers" d=" M 973 417 L 973 409" stroke-linejoin="bevel" stroke-miterlimit="10"/><path fill="none" stroke="black" paint-order="fill stroke markers" d=" M 1039 417 L 1039 409" stroke-linejoin="bevel" stroke-miterlimit="10"/><path fill="none" stroke="black" paint-order="fill stroke markers" d=" M 1197 417 L 1197 409" stroke-linejoin="bevel" stroke-miterlimit="10"/><path fill="none" stroke="black" paint-order="fill stroke markers" d=" M 1263 417 L 1263 409" stroke-linejoin="bevel" stroke-miterlimit="10"/><path fill="none" stroke="black" paint-order="fill stroke markers" d=" M 1329 417 L 1329 409" stroke-linejoin="bevel" stroke-miterlimit="10"/><path fill="" stroke="" paint-order="fill stroke markers" d=" M 1395 417 L 1395 409" stroke-linejoin="bevel" stroke-miterlimit="10"/><g transform="translate(128,422) rotate(-68.75493541569878,0,0)"><text fill="" stroke="none" font-family="helvetica" font-size="11pt" font-style="normal" font-weight="normal" text-decoration="normal" x="0" y="0" text-anchor="end" dominant-baseline="central">NO OVERSAMPLING</text><g transform="rotate(68.75493541569878,0,0) translate(-128,-422) translate(194,422) rotate(-68.75493541569878,0,0)"><text fill="" stroke="none" font-family="helvetica" font-size="11pt" font-style="normal" font-weight="normal" text-decoration="normal" x="0" y="0" text-anchor="end" dominant-baseline="central">RANDOM OVERSAMPLING</text><g transform="rotate(68.75493541569878,0,0) translate(-194,-422) translate(260,422) rotate(-68.75493541569878,0,0)"><text fill="" stroke="none" font-family="helvetica" font-size="11pt" font-style="normal" font-weight="normal" text-decoration="normal" x="0" y="0" text-anchor="end" dominant-baseline="central">SMOTE</text><g transform="rotate(68.75493541569878,0,0) translate(-260,-422) translate(326,422) rotate(-68.75493541569878,0,0)"><text fill="" stroke="none" font-family="helvetica" font-size="11pt" font-style="normal" font-weight="normal" text-decoration="normal" x="0" y="0" text-anchor="end" dominant-baseline="central">G-SMOTE</text><g transform="rotate(68.75493541569878,0,0) translate(-326,-422) translate(484,422) rotate(-68.75493541569878,0,0)"><text fill="" stroke="none" font-family="helvetica" font-size="11pt" font-style="normal" font-weight="normal" text-decoration="normal" x="0" y="0" text-anchor="end" dominant-baseline="central">NO OVERSAMPLING</text><g transform="rotate(68.75493541569878,0,0) translate(-484,-422) translate(550,422) rotate(-68.75493541569878,0,0)"><text fill="" stroke="none" font-family="helvetica" font-size="11pt" font-style="normal" font-weight="normal" text-decoration="normal" x="0" y="0" text-anchor="end" dominant-baseline="central">RANDOM OVERSAMPLING</text><g transform="rotate(68.75493541569878,0,0) translate(-550,-422) translate(616,422) rotate(-68.75493541569878,0,0)"><text fill="" stroke="none" font-family="helvetica" font-size="11pt" font-style="normal" font-weight="normal" text-decoration="normal" x="0" y="0" text-anchor="end" dominant-baseline="central">SMOTE</text><g transform="rotate(68.75493541569878,0,0) translate(-616,-422) translate(682,422) rotate(-68.75493541569878,0,0)"><text fill="" stroke="none" font-family="helvetica" font-size="11pt" font-style="normal" font-weight="normal" text-decoration="normal" x="0" y="0" text-anchor="end" dominant-baseline="central">G-SMOTE</text><g transform="rotate(68.75493541569878,0,0) translate(-682,-422) translate(841,422) rotate(-68.75493541569878,0,0)"><text fill="" stroke="none" font-family="helvetica" font-size="11pt" font-style="normal" font-weight="normal" text-decoration="normal" x="0" y="0" text-anchor="end" dominant-baseline="central">NO OVERSAMPLING</text><g transform="rotate(68.75493541569878,0,0) translate(-841,-422) translate(907,422) rotate(-68.75493541569878,0,0)"><text fill="" stroke="none" font-family="helvetica" font-size="11pt" font-style="normal" font-weight="normal" text-decoration="normal" x="0" y="0" text-anchor="end" dominant-baseline="central">RANDOM OVERSAMPLING</text><g transform="rotate(68.75493541569878,0,0) translate(-907,-422) translate(973,422) rotate(-68.75493541569878,0,0)"><text fill="" stroke="none" font-family="helvetica" font-size="11pt" font-style="normal" font-weight="normal" text-decoration="normal" x="0" y="0" text-anchor="end" dominant-baseline="central">SMOTE</text><g transform="rotate(68.75493541569878,0,0) translate(-973,-422) translate(1039,422) rotate(-68.75493541569878,0,0)"><text fill="" stroke="none" font-family="helvetica" font-size="11pt" font-style="normal" font-weight="normal" text-decoration="normal" x="0" y="0" text-anchor="end" dominant-baseline="central">G-SMOTE</text><g transform="rotate(68.75493541569878,0,0) translate(-1039,-422) translate(1197,422) rotate(-68.75493541569878,0,0)"><text fill="" stroke="none" font-family="helvetica" font-size="11pt" font-style="normal" font-weight="normal" text-decoration="normal" x="0" y="0" text-anchor="end" dominant-baseline="central">NO OVERSAMPLING</text><g transform="rotate(68.75493541569878,0,0) translate(-1197,-422) translate(1263,422) rotate(-68.75493541569878,0,0)"><text fill="" stroke="none" font-family="helvetica" font-size="11pt" font-style="normal" font-weight="normal" text-decoration="normal" x="0" y="0" text-anchor="end" dominant-baseline="central">RANDOM OVERSAMPLING</text><g transform="rotate(68.75493541569878,0,0) translate(-1263,-422) translate(1329,422) rotate(-68.75493541569878,0,0)"><text fill="" stroke="none" font-family="helvetica" font-size="11pt" font-style="normal" font-weight="normal" text-decoration="normal" x="0" y="0" text-anchor="end" dominant-baseline="central">SMOTE</text><g transform="rotate(68.75493541569878,0,0) translate(-1329,-422) translate(1395,422) rotate(-68.75493541569878,0,0)"><text fill="" stroke="none" font-family="helvetica" font-size="11pt" font-style="normal" font-weight="normal" text-decoration="normal" x="0" y="0" text-anchor="end" dominant-baseline="central">G-SMOTE</text><g transform="rotate(68.75493541569878,0,0) translate(-1395,-422) translate(227,626) rotate(0,0,0)"><text fill="" stroke="none" font-family="helvetica" font-size="14pt" font-style="normal" font-weight="bold" text-decoration="normal" x="0" y="0" text-anchor="middle" dominant-baseline="hanging">LR</text><g transform="rotate(0,0,0) translate(-227,-626) translate(583,626) rotate(0,0,0)"><text fill="" stroke="none" font-family="helvetica" font-size="14pt" font-style="normal" font-weight="bold" text-decoration="normal" x="0" y="0" text-anchor="middle" dominant-baseline="hanging">KNN</text><g transform="rotate(0,0,0) translate(-583,-626) translate(940,626) rotate(0,0,0)"><text fill="" stroke="none" font-family="helvetica" font-size="14pt" font-style="normal" font-weight="bold" text-decoration="normal" x="0" y="0" text-anchor="middle" dominant-baseline="hanging">DT</text><g transform="rotate(0,0,0) translate(-940,-626) translate(1296,626) rotate(0,0,0)"><text fill="" stroke="none" font-family="helvetica" font-size="14pt" font-style="normal" font-weight="bold" text-decoration="normal" x="0" y="0" text-anchor="middle" dominant-baseline="hanging">GBC</text><g transform="rotate(0,0,0) translate(-1296,-626)"><path fill="none" stroke="" paint-order="fill stroke markers" d=" M 405 638 L 405 414"/><path fill="none" stroke="" paint-order="fill stroke markers" d=" M 762 638 L 762 414"/><path fill="none" stroke="" paint-order="fill stroke markers" d=" M 1118 638 L 1118 414"/></g></g></g></g></g></g></g></g></g></g></g></g></g></g></g></g></g></g></g></g></g></g><g fill="#444444"><path fill="none" stroke="black" paint-order="fill stroke markers" d=" M 28 411 L 28 48" stroke-linejoin="bevel" stroke-miterlimit="10"/><path fill="none" stroke="black" paint-order="fill stroke markers" d=" M 22 411 L 30 411" stroke-linejoin="bevel" stroke-miterlimit="10"/><path fill="none" stroke="black" paint-order="fill stroke markers" d=" M 22 338 L 30 338" stroke-linejoin="bevel" stroke-miterlimit="10"/><path fill="none" stroke="black" paint-order="fill stroke markers" d=" M 22 266 L 30 266" stroke-linejoin="bevel" stroke-miterlimit="10"/><path fill="none" stroke="black" paint-order="fill stroke markers" d=" M 22 193 L 30 193" stroke-linejoin="bevel" stroke-miterlimit="10"/><path fill="none" stroke="black" paint-order="fill stroke markers" d=" M 22 121 L 30 121" stroke-linejoin="bevel" stroke-miterlimit="10"/><path fill="none" stroke="black" paint-order="fill stroke markers" d=" M 22 48 L 30 48" stroke-linejoin="bevel" stroke-miterlimit="10"/><path fill="none" stroke="black" paint-order="fill stroke markers" d=" M 24 411 L 28 411" stroke-linejoin="bevel" stroke-miterlimit="10"/><path fill="none" stroke="black" paint-order="fill stroke markers" d=" M 24 396 L 28 396" stroke-linejoin="bevel" stroke-miterlimit="10"/><path fill="none" stroke="black" paint-order="fill stroke markers" d=" M 24 382 L 28 382" stroke-linejoin="bevel" stroke-miterlimit="10"/><path fill="none" stroke="black" paint-order="fill stroke markers" d=" M 24 367 L 28 367" stroke-linejoin="bevel" stroke-miterlimit="10"/><path fill="none" stroke="black" paint-order="fill stroke markers" d=" M 24 353 L 28 353" stroke-linejoin="bevel" stroke-miterlimit="10"/><path fill="none" stroke="black" paint-order="fill stroke markers" d=" M 24 338 L 28 338" stroke-linejoin="bevel" stroke-miterlimit="10"/><path fill="none" stroke="black" paint-order="fill stroke markers" d=" M 24 324 L 28 324" stroke-linejoin="bevel" stroke-miterlimit="10"/><path fill="none" stroke="black" paint-order="fill stroke markers" d=" M 24 309 L 28 309" stroke-linejoin="bevel" stroke-miterlimit="10"/><path fill="none" stroke="black" paint-order="fill stroke markers" d=" M 24 295 L 28 295" stroke-linejoin="bevel" stroke-miterlimit="10"/><path fill="none" stroke="black" paint-order="fill stroke markers" d=" M 24 280 L 28 280" stroke-linejoin="bevel" stroke-miterlimit="10"/><path fill="none" stroke="black" paint-order="fill stroke markers" d=" M 24 266 L 28 266" stroke-linejoin="bevel" stroke-miterlimit="10"/><path fill="none" stroke="black" paint-order="fill stroke markers" d=" M 24 251 L 28 251" stroke-linejoin="bevel" stroke-miterlimit="10"/><path fill="none" stroke="black" paint-order="fill stroke markers" d=" M 24 237 L 28 237" stroke-linejoin="bevel" stroke-miterlimit="10"/><path fill="none" stroke="black" paint-order="fill stroke markers" d=" M 24 222 L 28 222" stroke-linejoin="bevel" stroke-miterlimit="10"/><path fill="none" stroke="black" paint-order="fill stroke markers" d=" M 24 208 L 28 208" stroke-linejoin="bevel" stroke-miterlimit="10"/><path fill="none" stroke="black" paint-order="fill stroke markers" d=" M 24 193 L 28 193" stroke-linejoin="bevel" stroke-miterlimit="10"/><path fill="none" stroke="black" paint-order="fill stroke markers" d=" M 24 179 L 28 179" stroke-linejoin="bevel" stroke-miterlimit="10"/><path fill="none" stroke="black" paint-order="fill stroke markers" d=" M 24 164 L 28 164" stroke-linejoin="bevel" stroke-miterlimit="10"/><path fill="none" stroke="black" paint-order="fill stroke markers" d=" M 24 150 L 28 150" stroke-linejoin="bevel" stroke-miterlimit="10"/><path fill="none" stroke="black" paint-order="fill stroke markers" d=" M 24 135 L 28 135" stroke-linejoin="bevel" stroke-miterlimit="10"/><path fill="none" stroke="black" paint-order="fill stroke markers" d=" M 24 121 L 28 121" stroke-linejoin="bevel" stroke-miterlimit="10"/><path fill="none" stroke="black" paint-order="fill stroke markers" d=" M 24 106 L 28 106" stroke-linejoin="bevel" stroke-miterlimit="10"/><path fill="none" stroke="black" paint-order="fill stroke markers" d=" M 24 92 L 28 92" stroke-linejoin="bevel" stroke-miterlimit="10"/><path fill="none" stroke="black" paint-order="fill stroke markers" d=" M 24 77 L 28 77" stroke-linejoin="bevel" stroke-miterlimit="10"/><path fill="none" stroke="black" paint-order="fill stroke markers" d=" M 24 63 L 28 63" stroke-linejoin="bevel" stroke-miterlimit="10"/><path fill="" stroke="black" paint-order="fill stroke markers" d=" M 24 48 L 28 48" stroke-linejoin="bevel" stroke-miterlimit="10"/><g transform="translate(17,411) rotate(0,0,0)"><text fill="" stroke="none" font-family="helvetica" font-size="8pt" font-style="normal" font-weight="normal" text-decoration="normal" x="0" y="0" text-anchor="end" dominant-baseline="central">0</text><g transform="rotate(0,0,0) translate(-17,-411) translate(17,338) rotate(0,0,0)"><text fill="" stroke="none" font-family="helvetica" font-size="8pt" font-style="normal" font-weight="normal" text-decoration="normal" x="0" y="0" text-anchor="end" dominant-baseline="central">0.2</text><g transform="rotate(0,0,0) translate(-17,-338) translate(17,266) rotate(0,0,0)"><text fill="" stroke="none" font-family="helvetica" font-size="8pt" font-style="normal" font-weight="normal" text-decoration="normal" x="0" y="0" text-anchor="end" dominant-baseline="central">0.4</text><g transform="rotate(0,0,0) translate(-17,-266) translate(17,193) rotate(0,0,0)"><text fill="" stroke="none" font-family="helvetica" font-size="8pt" font-style="normal" font-weight="normal" text-decoration="normal" x="0" y="0" text-anchor="end" dominant-baseline="central">0.6</text><g transform="rotate(0,0,0) translate(-17,-193) translate(17,121) rotate(0,0,0)"><text fill="" stroke="none" font-family="helvetica" font-size="8pt" font-style="normal" font-weight="normal" text-decoration="normal" x="0" y="0" text-anchor="end" dominant-baseline="central">0.8</text><g transform="rotate(0,0,0) translate(-17,-121) translate(17,48) rotate(0,0,0)"><text fill="" stroke="none" font-family="helvetica" font-size="8pt" font-style="normal" font-weight="normal" text-decoration="normal" x="0" y="0" text-anchor="end" dominant-baseline="central">1</text><g transform="rotate(0,0,0) translate(-17,-48)"/></g></g></g></g></g></g></g><g fill="#444444"><path fill="" stroke="none" d=""/><g transform="translate(28,43)"><path fill="none" stroke="none"/><text fill="" stroke="none" font-family="helvetica" font-size="20pt" font-style="normal" font-weight="bold" text-decoration="normal" x="0" y="0" text-anchor="start" dominant-baseline="text-after-edge">Mean GEOMETRIC MEAN SCORE</text></g></g></g></g></g></svg>