<svg version="1.1" xmlns="http://www.w3.org/2000/svg" xmlns:xlink="http://www.w3.org/1999/xlink" width="1500" height="650" style="width: 1500px; height: 650px;"><defs><clipPath id="rFCPkuwxvrgF"><path fill="none" stroke="none" d=" M 18 48 L 1495 48 L 1495 424 L 18 424 L 18 48 Z"/></clipPath><clipPath id="qXsaTmfzBgIg"><path fill="none" stroke="none" d=" M 18 48 L 1495 48 L 1495 424 L 18 424 L 18 48 Z"/></clipPath></defs><g><g transform="scale(1,1) translate(0.5,0.5)"><rect fill="#FFFFFF" stroke="none" x="0" y="0" width="1500" height="650"/><rect fill="#ffffff" stroke="none" x="0" y="0" width="1500" height="650"/><rect fill="#FFFFFF" stroke="none" x="18" y="48" width="1477" height="376"/><rect fill="#ffffff" stroke="none" x="18" y="48" width="1477" height="376"/><g><rect fill="none" stroke="#e5e5e5" x="18" y="48" width="1477" height="376" stroke-linejoin="bevel" stroke-miterlimit="10"/></g><g clip-path="url(#rFCPkuwxvrgF)"><g><g><path fill="none" stroke="#e5e5e5" paint-order="fill stroke markers" d=" M 127 424 L 127 48" stroke-linejoin="bevel" stroke-miterlimit="10"/><path fill="none" stroke="#e5e5e5" paint-order="fill stroke markers" d=" M 209 424 L 209 48" stroke-linejoin="bevel" stroke-miterlimit="10"/><path fill="none" stroke="#e5e5e5" paint-order="fill stroke markers" d=" M 292 424 L 292 48" stroke-linejoin="bevel" stroke-miterlimit="10"/><path fill="none" stroke="#e5e5e5" paint-order="fill stroke markers" d=" M 491 424 L 491 48" stroke-linejoin="bevel" stroke-miterlimit="10"/><path fill="none" stroke="#e5e5e5" paint-order="fill stroke markers" d=" M 574 424 L 574 48" stroke-linejoin="bevel" stroke-miterlimit="10"/><path fill="none" stroke="#e5e5e5" paint-order="fill stroke markers" d=" M 657 424 L 657 48" stroke-linejoin="bevel" stroke-miterlimit="10"/><path fill="none" stroke="#e5e5e5" paint-order="fill stroke markers" d=" M 856 424 L 856 48" stroke-linejoin="bevel" stroke-miterlimit="10"/><path fill="none" stroke="#e5e5e5" paint-order="fill stroke markers" d=" M 939 424 L 939 48" stroke-linejoin="bevel" stroke-miterlimit="10"/><path fill="none" stroke="#e5e5e5" paint-order="fill stroke markers" d=" M 1022 424 L 1022 48" stroke-linejoin="bevel" stroke-miterlimit="10"/><path fill="none" stroke="#e5e5e5" paint-order="fill stroke markers" d=" M 1221 424 L 1221 48" stroke-linejoin="bevel" stroke-miterlimit="10"/><path fill="none" stroke="#e5e5e5" paint-order="fill stroke markers" d=" M 1304 424 L 1304 48" stroke-linejoin="bevel" stroke-miterlimit="10"/><path fill="none" stroke="#e5e5e5" paint-order="fill stroke markers" d=" M 1386 424 L 1386 48" stroke-linejoin="bevel" stroke-miterlimit="10"/></g><g><path fill="none" stroke="#e5e5e5" paint-order="fill stroke markers" d=" M 18 330 L 1495 330" stroke-linejoin="bevel" stroke-miterlimit="10"/><path fill="none" stroke="#e5e5e5" paint-order="fill stroke markers" d=" M 18 236 L 1495 236" stroke-linejoin="bevel" stroke-miterlimit="10"/><path fill="none" stroke="#e5e5e5" paint-order="fill stroke markers" d=" M 18 142 L 1495 142" stroke-linejoin="bevel" stroke-miterlimit="10"/><path fill="none" stroke="#e5e5e5" paint-order="fill stroke markers" d=" M 18 48 L 1495 48" stroke-linejoin="bevel" stroke-miterlimit="10"/></g><g><path fill="none" stroke="none"/><rect fill="#99d594" stroke="none" x="89.28058361391697" y="262.0345017779828" width="74.59595959595958" height="161.96549822201717"/><path fill="none" stroke="#1f77b4" paint-order="fill stroke markers" d=" M 89.28058361391697 262.0345017779828 L 163.87654320987656 262.0345017779828 L 163.87654320987656 424 L 89.28058361391697 424 L 89.28058361391697 262.0345017779828 Z" stroke-linejoin="bevel" stroke-miterlimit="10"/><rect fill="#ffffbf" stroke="none" x="172.1649831649832" y="55.63020954892306" width="74.59595959595964" height="368.36979045107694"/><path fill="none" stroke="#1f77b4" paint-order="fill stroke markers" d=" M 172.1649831649832 55.63020954892306 L 246.76094276094284 55.63020954892306 L 246.76094276094284 424 L 172.1649831649832 424 L 172.1649831649832 55.63020954892306 Z" stroke-linejoin="bevel" stroke-miterlimit="10"/><rect fill="#fc8d59" stroke="none" x="255.0493827160494" y="207.35453883748508" width="74.59595959595961" height="216.64546116251492"/><path fill="none" stroke="#1f77b4" paint-order="fill stroke markers" d=" M 255.0493827160494 207.35453883748508 L 329.645342312009 207.35453883748508 L 329.645342312009 424 L 255.0493827160494 424 L 255.0493827160494 207.35453883748508 Z" stroke-linejoin="bevel" stroke-miterlimit="10"/><rect fill="#99d594" stroke="none" x="453.97194163860837" y="351.9039571941865" width="74.59595959595976" height="72.09604280581351"/><path fill="none" stroke="#1f77b4" paint-order="fill stroke markers" d=" M 453.97194163860837 351.9039571941865 L 528.5679012345681 351.9039571941865 L 528.5679012345681 424 L 453.97194163860837 424 L 453.97194163860837 351.9039571941865 Z" stroke-linejoin="bevel" stroke-miterlimit="10"/><rect fill="#ffffbf" stroke="none" x="536.8563411896747" y="143.44346553909838" width="74.59595959595958" height="280.5565344609016"/><path fill="none" stroke="#1f77b4" paint-order="fill stroke markers" d=" M 536.8563411896747 143.44346553909838 L 611.4523007856343 143.44346553909838 L 611.4523007856343 424 L 536.8563411896747 424 L 536.8563411896747 143.44346553909838 Z" stroke-linejoin="bevel" stroke-miterlimit="10"/><rect fill="#fc8d59" stroke="none" x="619.7407407407409" y="208.2385672438321" width="74.59595959595958" height="215.7614327561679"/><path fill="none" stroke="#1f77b4" paint-order="fill stroke markers" d=" M 619.7407407407409 208.2385672438321 L 694.3367003367005 208.2385672438321 L 694.3367003367005 424 L 619.7407407407409 424 L 619.7407407407409 208.2385672438321 Z" stroke-linejoin="bevel" stroke-miterlimit="10"/><rect fill="#99d594" stroke="none" x="818.6632996633" y="305.45496706143496" width="74.59595959595936" height="118.54503293856504"/><path fill="none" stroke="#1f77b4" paint-order="fill stroke markers" d=" M 818.6632996633 305.45496706143496 L 893.2592592592594 305.45496706143496 L 893.2592592592594 424 L 818.6632996633 424 L 818.6632996633 305.45496706143496 Z" stroke-linejoin="bevel" stroke-miterlimit="10"/><rect fill="#ffffbf" stroke="none" x="901.5476992143663" y="161.01292298045774" width="74.59595959595936" height="262.98707701954226"/><path fill="none" stroke="#1f77b4" paint-order="fill stroke markers" d=" M 901.5476992143663 161.01292298045774 L 976.1436588103256 161.01292298045774 L 976.1436588103256 424 L 901.5476992143663 424 L 901.5476992143663 161.01292298045774 Z" stroke-linejoin="bevel" stroke-miterlimit="10"/><rect fill="#fc8d59" stroke="none" x="984.4320987654323" y="142.13684410031908" width="74.59595959595958" height="281.8631558996809"/><path fill="none" stroke="#1f77b4" paint-order="fill stroke markers" d=" M 984.4320987654323 142.13684410031908 L 1059.028058361392 142.13684410031908 L 1059.028058361392 424 L 984.4320987654323 424 L 984.4320987654323 142.13684410031908 Z" stroke-linejoin="bevel" stroke-miterlimit="10"/><rect fill="#99d594" stroke="none" x="1183.3546576879917" y="405.8263064765537" width="74.59595959595936" height="18.173693523446275"/><path fill="none" stroke="#1f77b4" paint-order="fill stroke markers" d=" M 1183.3546576879917 405.8263064765537 L 1257.950617283951 405.8263064765537 L 1257.950617283951 424 L 1183.3546576879917 424 L 1183.3546576879917 405.8263064765537 Z" stroke-linejoin="bevel" stroke-miterlimit="10"/><rect fill="#ffffbf" stroke="none" x="1266.2390572390577" y="312.7923886808827" width="74.59595959595981" height="111.20761131911729"/><path fill="none" stroke="#1f77b4" paint-order="fill stroke markers" d=" M 1266.2390572390577 312.7923886808827 L 1340.8350168350175 312.7923886808827 L 1340.8350168350175 424 L 1266.2390572390577 424 L 1266.2390572390577 312.7923886808827 Z" stroke-linejoin="bevel" stroke-miterlimit="10"/><rect fill="#fc8d59" stroke="none" x="1349.1234567901238" y="276.1297174155719" width="74.59595959595981" height="147.87028258442808"/><path fill="none" stroke="#1f77b4" paint-order="fill stroke markers" d=" M 1349.1234567901238 276.1297174155719 L 1423.7194163860836 276.1297174155719 L 1423.7194163860836 424 L 1349.1234567901238 424 L 1349.1234567901238 276.1297174155719 Z" stroke-linejoin="bevel" stroke-miterlimit="10"/></g></g></g><g clip-path="url(#qXsaTmfzBgIg)"><g/></g><g><g fill="grey" stroke="lightgrey" stroke-linejoin="bevel" stroke-miterlimit="10" stroke-width="2"><path fill="none" stroke="black" paint-order="fill stroke markers" d=" M 18 424 L 1495 424" stroke-linejoin="bevel" stroke-miterlimit="10"/><path fill="none" stroke="black" paint-order="fill stroke markers" d=" M 127 430 L 127 422" stroke-linejoin="bevel" stroke-miterlimit="10"/><path fill="none" stroke="black" paint-order="fill stroke markers" d=" M 209 430 L 209 422" stroke-linejoin="bevel" stroke-miterlimit="10"/><path fill="none" stroke="black" paint-order="fill stroke markers" d=" M 292 430 L 292 422" stroke-linejoin="bevel" stroke-miterlimit="10"/><path fill="none" stroke="black" paint-order="fill stroke markers" d=" M 491 430 L 491 422" stroke-linejoin="bevel" stroke-miterlimit="10"/><path fill="none" stroke="black" paint-order="fill stroke markers" d=" M 574 430 L 574 422" stroke-linejoin="bevel" stroke-miterlimit="10"/><path fill="none" stroke="black" paint-order="fill stroke markers" d=" M 657 430 L 657 422" stroke-linejoin="bevel" stroke-miterlimit="10"/><path fill="none" stroke="black" paint-order="fill stroke markers" d=" M 856 430 L 856 422" stroke-linejoin="bevel" stroke-miterlimit="10"/><path fill="none" stroke="black" paint-order="fill stroke markers" d=" M 939 430 L 939 422" stroke-linejoin="bevel" stroke-miterlimit="10"/><path fill="none" stroke="black" paint-order="fill stroke markers" d=" M 1022 430 L 1022 422" stroke-linejoin="bevel" stroke-miterlimit="10"/><path fill="none" stroke="black" paint-order="fill stroke markers" d=" M 1221 430 L 1221 422" stroke-linejoin="bevel" stroke-miterlimit="10"/><path fill="none" stroke="black" paint-order="fill stroke markers" d=" M 1304 430 L 1304 422" stroke-linejoin="bevel" stroke-miterlimit="10"/><path fill="" stroke="" paint-order="fill stroke markers" d=" M 1386 430 L 1386 422" stroke-linejoin="bevel" stroke-miterlimit="10"/><g transform="translate(127,435) rotate(-57.29577951308232,0,0)"><text fill="" stroke="none" font-family="helvetica" font-size="11pt" font-style="normal" font-weight="normal" text-decoration="normal" x="0" y="0" text-anchor="end" dominant-baseline="central">ROC AUC</text><g transform="rotate(57.29577951308232,0,0) translate(-127,-435) translate(209,435) rotate(-57.29577951308232,0,0)"><text fill="" stroke="none" font-family="helvetica" font-size="11pt" font-style="normal" font-weight="normal" text-decoration="normal" x="0" y="0" text-anchor="end" dominant-baseline="central">F1</text><g transform="rotate(57.29577951308232,0,0) translate(-209,-435) translate(292,435) rotate(-57.29577951308232,0,0)"><text fill="" stroke="none" font-family="helvetica" font-size="11pt" font-style="normal" font-weight="normal" text-decoration="normal" x="0" y="0" text-anchor="end" dominant-baseline="central">GEOMETRIC MEAN SCORE</text><g transform="rotate(57.29577951308232,0,0) translate(-292,-435) translate(491,435) rotate(-57.29577951308232,0,0)"><text fill="" stroke="none" font-family="helvetica" font-size="11pt" font-style="normal" font-weight="normal" text-decoration="normal" x="0" y="0" text-anchor="end" dominant-baseline="central">ROC AUC</text><g transform="rotate(57.29577951308232,0,0) translate(-491,-435) translate(574,435) rotate(-57.29577951308232,0,0)"><text fill="" stroke="none" font-family="helvetica" font-size="11pt" font-style="normal" font-weight="normal" text-decoration="normal" x="0" y="0" text-anchor="end" dominant-baseline="central">F1</text><g transform="rotate(57.29577951308232,0,0) translate(-574,-435) translate(657,435) rotate(-57.29577951308232,0,0)"><text fill="" stroke="none" font-family="helvetica" font-size="11pt" font-style="normal" font-weight="normal" text-decoration="normal" x="0" y="0" text-anchor="end" dominant-baseline="central">GEOMETRIC MEAN SCORE</text><g transform="rotate(57.29577951308232,0,0) translate(-657,-435) translate(856,435) rotate(-57.29577951308232,0,0)"><text fill="" stroke="none" font-family="helvetica" font-size="11pt" font-style="normal" font-weight="normal" text-decoration="normal" x="0" y="0" text-anchor="end" dominant-baseline="central">ROC AUC</text><g transform="rotate(57.29577951308232,0,0) translate(-856,-435) translate(939,435) rotate(-57.29577951308232,0,0)"><text fill="" stroke="none" font-family="helvetica" font-size="11pt" font-style="normal" font-weight="normal" text-decoration="normal" x="0" y="0" text-anchor="end" dominant-baseline="central">F1</text><g transform="rotate(57.29577951308232,0,0) translate(-939,-435) translate(1022,435) rotate(-57.29577951308232,0,0)"><text fill="" stroke="none" font-family="helvetica" font-size="11pt" font-style="normal" font-weight="normal" text-decoration="normal" x="0" y="0" text-anchor="end" dominant-baseline="central">GEOMETRIC MEAN SCORE</text><g transform="rotate(57.29577951308232,0,0) translate(-1022,-435) translate(1221,435) rotate(-57.29577951308232,0,0)"><text fill="" stroke="none" font-family="helvetica" font-size="11pt" font-style="normal" font-weight="normal" text-decoration="normal" x="0" y="0" text-anchor="end" dominant-baseline="central">ROC AUC</text><g transform="rotate(57.29577951308232,0,0) translate(-1221,-435) translate(1304,435) rotate(-57.29577951308232,0,0)"><text fill="" stroke="none" font-family="helvetica" font-size="11pt" font-style="normal" font-weight="normal" text-decoration="normal" x="0" y="0" text-anchor="end" dominant-baseline="central">F1</text><g transform="rotate(57.29577951308232,0,0) translate(-1304,-435) translate(1386,435) rotate(-57.29577951308232,0,0)"><text fill="" stroke="none" font-family="helvetica" font-size="11pt" font-style="normal" font-weight="normal" text-decoration="normal" x="0" y="0" text-anchor="end" dominant-baseline="central">GEOMETRIC MEAN SCORE</text><g transform="rotate(57.29577951308232,0,0) translate(-1386,-435) translate(209,626) rotate(0,0,0)"><text fill="" stroke="none" font-family="helvetica" font-size="14pt" font-style="normal" font-weight="bold" text-decoration="normal" x="0" y="0" text-anchor="middle" dominant-baseline="hanging">LR</text><g transform="rotate(0,0,0) translate(-209,-626) translate(574,626) rotate(0,0,0)"><text fill="" stroke="none" font-family="helvetica" font-size="14pt" font-style="normal" font-weight="bold" text-decoration="normal" x="0" y="0" text-anchor="middle" dominant-baseline="hanging">KNN</text><g transform="rotate(0,0,0) translate(-574,-626) translate(939,626) rotate(0,0,0)"><text fill="" stroke="none" font-family="helvetica" font-size="14pt" font-style="normal" font-weight="bold" text-decoration="normal" x="0" y="0" text-anchor="middle" dominant-baseline="hanging">DT</text><g transform="rotate(0,0,0) translate(-939,-626) translate(1304,626) rotate(0,0,0)"><text fill="" stroke="none" font-family="helvetica" font-size="14pt" font-style="normal" font-weight="bold" text-decoration="normal" x="0" y="0" text-anchor="middle" dominant-baseline="hanging">GBC</text><g transform="rotate(0,0,0) translate(-1304,-626)"><path fill="none" stroke="" paint-order="fill stroke markers" d=" M 392 638 L 392 427"/><path fill="none" stroke="" paint-order="fill stroke markers" d=" M 757 638 L 757 427"/><path fill="none" stroke="" paint-order="fill stroke markers" d=" M 1121 638 L 1121 427"/></g></g></g></g></g></g></g></g></g></g></g></g></g></g></g></g></g></g><g fill="#444444"><path fill="none" stroke="black" paint-order="fill stroke markers" d=" M 18 424 L 18 48" stroke-linejoin="bevel" stroke-miterlimit="10"/><path fill="none" stroke="black" paint-order="fill stroke markers" d=" M 12 424 L 20 424" stroke-linejoin="bevel" stroke-miterlimit="10"/><path fill="none" stroke="black" paint-order="fill stroke markers" d=" M 12 330 L 20 330" stroke-linejoin="bevel" stroke-miterlimit="10"/><path fill="none" stroke="black" paint-order="fill stroke markers" d=" M 12 236 L 20 236" stroke-linejoin="bevel" stroke-miterlimit="10"/><path fill="none" stroke="black" paint-order="fill stroke markers" d=" M 12 142 L 20 142" stroke-linejoin="bevel" stroke-miterlimit="10"/><path fill="none" stroke="black" paint-order="fill stroke markers" d=" M 12 48 L 20 48" stroke-linejoin="bevel" stroke-miterlimit="10"/><path fill="none" stroke="black" paint-order="fill stroke markers" d=" M 14 424 L 18 424" stroke-linejoin="bevel" stroke-miterlimit="10"/><path fill="none" stroke="black" paint-order="fill stroke markers" d=" M 14 405 L 18 405" stroke-linejoin="bevel" stroke-miterlimit="10"/><path fill="none" stroke="black" paint-order="fill stroke markers" d=" M 14 386 L 18 386" stroke-linejoin="bevel" stroke-miterlimit="10"/><path fill="none" stroke="black" paint-order="fill stroke markers" d=" M 14 368 L 18 368" stroke-linejoin="bevel" stroke-miterlimit="10"/><path fill="none" stroke="black" paint-order="fill stroke markers" d=" M 14 349 L 18 349" stroke-linejoin="bevel" stroke-miterlimit="10"/><path fill="none" stroke="black" paint-order="fill stroke markers" d=" M 14 330 L 18 330" stroke-linejoin="bevel" stroke-miterlimit="10"/><path fill="none" stroke="black" paint-order="fill stroke markers" d=" M 14 311 L 18 311" stroke-linejoin="bevel" stroke-miterlimit="10"/><path fill="none" stroke="black" paint-order="fill stroke markers" d=" M 14 292 L 18 292" stroke-linejoin="bevel" stroke-miterlimit="10"/><path fill="none" stroke="black" paint-order="fill stroke markers" d=" M 14 274 L 18 274" stroke-linejoin="bevel" stroke-miterlimit="10"/><path fill="none" stroke="black" paint-order="fill stroke markers" d=" M 14 255 L 18 255" stroke-linejoin="bevel" stroke-miterlimit="10"/><path fill="none" stroke="black" paint-order="fill stroke markers" d=" M 14 236 L 18 236" stroke-linejoin="bevel" stroke-miterlimit="10"/><path fill="none" stroke="black" paint-order="fill stroke markers" d=" M 14 217 L 18 217" stroke-linejoin="bevel" stroke-miterlimit="10"/><path fill="none" stroke="black" paint-order="fill stroke markers" d=" M 14 198 L 18 198" stroke-linejoin="bevel" stroke-miterlimit="10"/><path fill="none" stroke="black" paint-order="fill stroke markers" d=" M 14 180 L 18 180" stroke-linejoin="bevel" stroke-miterlimit="10"/><path fill="none" stroke="black" paint-order="fill stroke markers" d=" M 14 161 L 18 161" stroke-linejoin="bevel" stroke-miterlimit="10"/><path fill="none" stroke="black" paint-order="fill stroke markers" d=" M 14 142 L 18 142" stroke-linejoin="bevel" stroke-miterlimit="10"/><path fill="none" stroke="black" paint-order="fill stroke markers" d=" M 14 123 L 18 123" stroke-linejoin="bevel" stroke-miterlimit="10"/><path fill="none" stroke="black" paint-order="fill stroke markers" d=" M 14 104 L 18 104" stroke-linejoin="bevel" stroke-miterlimit="10"/><path fill="none" stroke="black" paint-order="fill stroke markers" d=" M 14 86 L 18 86" stroke-linejoin="bevel" stroke-miterlimit="10"/><path fill="none" stroke="black" paint-order="fill stroke markers" d=" M 14 67 L 18 67" stroke-linejoin="bevel" stroke-miterlimit="10"/><path fill="" stroke="black" paint-order="fill stroke markers" d=" M 14 48 L 18 48" stroke-linejoin="bevel" stroke-miterlimit="10"/><g transform="translate(7,424) rotate(0,0,0)"><text fill="" stroke="none" font-family="helvetica" font-size="8pt" font-style="normal" font-weight="normal" text-decoration="normal" x="0" y="0" text-anchor="end" dominant-baseline="central">0</text><g transform="rotate(0,0,0) translate(-7,-424) translate(7,330) rotate(0,0,0)"><text fill="" stroke="none" font-family="helvetica" font-size="8pt" font-style="normal" font-weight="normal" text-decoration="normal" x="0" y="0" text-anchor="end" dominant-baseline="central">2</text><g transform="rotate(0,0,0) translate(-7,-330) translate(7,236) rotate(0,0,0)"><text fill="" stroke="none" font-family="helvetica" font-size="8pt" font-style="normal" font-weight="normal" text-decoration="normal" x="0" y="0" text-anchor="end" dominant-baseline="central">4</text><g transform="rotate(0,0,0) translate(-7,-236) translate(7,142) rotate(0,0,0)"><text fill="" stroke="none" font-family="helvetica" font-size="8pt" font-style="normal" font-weight="normal" text-decoration="normal" x="0" y="0" text-anchor="end" dominant-baseline="central">6</text><g transform="rotate(0,0,0) translate(-7,-142) translate(7,48) rotate(0,0,0)"><text fill="" stroke="none" font-family="helvetica" font-size="8pt" font-style="normal" font-weight="normal" text-decoration="normal" x="0" y="0" text-anchor="end" dominant-baseline="central">8</text><g transform="rotate(0,0,0) translate(-7,-48)"/></g></g></g></g></g></g><g fill="#444444"><path fill="" stroke="none" d=""/><g transform="translate(18,43)"><path fill="none" stroke="none"/><text fill="" stroke="none" font-family="helvetica" font-size="20pt" font-style="normal" font-weight="bold" text-decoration="normal" x="0" y="0" text-anchor="start" dominant-baseline="text-after-edge">G-SMOTE and SMOTE percentage difference</text></g></g></g></g></g></svg>