<svg version="1.1" xmlns="http://www.w3.org/2000/svg" xmlns:xlink="http://www.w3.org/1999/xlink" width="1500" height="650" style="width: 1500px; height: 650px;"><defs><clipPath id="TeAxFFJKImKa"><path fill="none" stroke="none" d=" M 18 46 L 1495 46 L 1495 544 L 18 544 L 18 46 Z"/></clipPath><clipPath id="HTNFAdPeQXBi"><path fill="none" stroke="none" d=" M 18 46 L 1495 46 L 1495 544 L 18 544 L 18 46 Z"/></clipPath></defs><g><g transform="scale(1,1) translate(0.5,0.5)"><rect fill="#FFFFFF" stroke="none" x="0" y="0" width="1500" height="650"/><rect fill="#ffffff" stroke="none" x="0" y="0" width="1500" height="650"/><rect fill="#FFFFFF" stroke="none" x="18" y="46" width="1477" height="498"/><rect fill="#ffffff" stroke="none" x="18" y="46" width="1477" height="498"/><g><rect fill="none" stroke="#e5e5e5" x="18" y="46" width="1477" height="498" stroke-linejoin="bevel" stroke-miterlimit="10"/></g><g clip-path="url(#TeAxFFJKImKa)"><g><g><path fill="none" stroke="#e5e5e5" paint-order="fill stroke markers" d=" M 127 544 L 127 46" stroke-linejoin="bevel" stroke-miterlimit="10"/><path fill="none" stroke="#e5e5e5" paint-order="fill stroke markers" d=" M 209 544 L 209 46" stroke-linejoin="bevel" stroke-miterlimit="10"/><path fill="none" stroke="#e5e5e5" paint-order="fill stroke markers" d=" M 292 544 L 292 46" stroke-linejoin="bevel" stroke-miterlimit="10"/><path fill="none" stroke="#e5e5e5" paint-order="fill stroke markers" d=" M 491 544 L 491 46" stroke-linejoin="bevel" stroke-miterlimit="10"/><path fill="none" stroke="#e5e5e5" paint-order="fill stroke markers" d=" M 574 544 L 574 46" stroke-linejoin="bevel" stroke-miterlimit="10"/><path fill="none" stroke="#e5e5e5" paint-order="fill stroke markers" d=" M 657 544 L 657 46" stroke-linejoin="bevel" stroke-miterlimit="10"/><path fill="none" stroke="#e5e5e5" paint-order="fill stroke markers" d=" M 856 544 L 856 46" stroke-linejoin="bevel" stroke-miterlimit="10"/><path fill="none" stroke="#e5e5e5" paint-order="fill stroke markers" d=" M 939 544 L 939 46" stroke-linejoin="bevel" stroke-miterlimit="10"/><path fill="none" stroke="#e5e5e5" paint-order="fill stroke markers" d=" M 1022 544 L 1022 46" stroke-linejoin="bevel" stroke-miterlimit="10"/><path fill="none" stroke="#e5e5e5" paint-order="fill stroke markers" d=" M 1221 544 L 1221 46" stroke-linejoin="bevel" stroke-miterlimit="10"/><path fill="none" stroke="#e5e5e5" paint-order="fill stroke markers" d=" M 1304 544 L 1304 46" stroke-linejoin="bevel" stroke-miterlimit="10"/><path fill="none" stroke="#e5e5e5" paint-order="fill stroke markers" d=" M 1386 544 L 1386 46" stroke-linejoin="bevel" stroke-miterlimit="10"/></g><g><path fill="none" stroke="#e5e5e5" paint-order="fill stroke markers" d=" M 18 420 L 1495 420" stroke-linejoin="bevel" stroke-miterlimit="10"/><path fill="none" stroke="#e5e5e5" paint-order="fill stroke markers" d=" M 18 295 L 1495 295" stroke-linejoin="bevel" stroke-miterlimit="10"/><path fill="none" stroke="#e5e5e5" paint-order="fill stroke markers" d=" M 18 171 L 1495 171" stroke-linejoin="bevel" stroke-miterlimit="10"/><path fill="none" stroke="#e5e5e5" paint-order="fill stroke markers" d=" M 18 46 L 1495 46" stroke-linejoin="bevel" stroke-miterlimit="10"/></g><g><path fill="none" stroke="none"/><rect fill="#99d594" stroke="none" x="89.28058361391697" y="519.9295229396893" width="74.59595959595958" height="24.070477060310736"/><path fill="none" stroke="#1f77b4" paint-order="fill stroke markers" d=" M 89.28058361391697 519.9295229396893 L 163.87654320987656 519.9295229396893 L 163.87654320987656 544 L 89.28058361391697 544 L 89.28058361391697 519.9295229396893 Z" stroke-linejoin="bevel" stroke-miterlimit="10"/><rect fill="#ffffbf" stroke="none" x="172.1649831649832" y="396.7090679869169" width="74.59595959595964" height="147.29093201308308"/><path fill="none" stroke="#1f77b4" paint-order="fill stroke markers" d=" M 172.1649831649832 396.7090679869169 L 246.76094276094284 396.7090679869169 L 246.76094276094284 544 L 172.1649831649832 544 L 172.1649831649832 396.7090679869169 Z" stroke-linejoin="bevel" stroke-miterlimit="10"/><rect fill="#fc8d59" stroke="none" x="255.0493827160494" y="348.1505299812643" width="74.59595959595961" height="195.8494700187357"/><path fill="none" stroke="#1f77b4" paint-order="fill stroke markers" d=" M 255.0493827160494 348.1505299812643 L 329.645342312009 348.1505299812643 L 329.645342312009 544 L 255.0493827160494 544 L 255.0493827160494 348.1505299812643 Z" stroke-linejoin="bevel" stroke-miterlimit="10"/><rect fill="#99d594" stroke="none" x="453.97194163860837" y="386.9908872249848" width="74.59595959595976" height="157.00911277501518"/><path fill="none" stroke="#1f77b4" paint-order="fill stroke markers" d=" M 453.97194163860837 386.9908872249848 L 528.5679012345681 386.9908872249848 L 528.5679012345681 544 L 453.97194163860837 544 L 453.97194163860837 386.9908872249848 Z" stroke-linejoin="bevel" stroke-miterlimit="10"/><rect fill="#ffffbf" stroke="none" x="536.8563411896747" y="195.68200969219947" width="74.59595959595958" height="348.3179903078005"/><path fill="none" stroke="#1f77b4" paint-order="fill stroke markers" d=" M 536.8563411896747 195.68200969219947 L 611.4523007856343 195.68200969219947 L 611.4523007856343 544 L 536.8563411896747 544 L 536.8563411896747 195.68200969219947 Z" stroke-linejoin="bevel" stroke-miterlimit="10"/><rect fill="#fc8d59" stroke="none" x="619.7407407407409" y="170.68124564350893" width="74.59595959595958" height="373.31875435649107"/><path fill="none" stroke="#1f77b4" paint-order="fill stroke markers" d=" M 619.7407407407409 170.68124564350893 L 694.3367003367005 170.68124564350893 L 694.3367003367005 544 L 619.7407407407409 544 L 619.7407407407409 170.68124564350893 Z" stroke-linejoin="bevel" stroke-miterlimit="10"/><rect fill="#99d594" stroke="none" x="818.6632996633" y="329.48186671658436" width="74.59595959595936" height="214.51813328341564"/><path fill="none" stroke="#1f77b4" paint-order="fill stroke markers" d=" M 818.6632996633 329.48186671658436 L 893.2592592592594 329.48186671658436 L 893.2592592592594 544 L 818.6632996633 544 L 818.6632996633 329.48186671658436 Z" stroke-linejoin="bevel" stroke-miterlimit="10"/><rect fill="#ffffbf" stroke="none" x="901.5476992143663" y="56.10596903022571" width="74.59595959595936" height="487.8940309697743"/><path fill="none" stroke="#1f77b4" paint-order="fill stroke markers" d=" M 901.5476992143663 56.10596903022571 L 976.1436588103256 56.10596903022571 L 976.1436588103256 544 L 901.5476992143663 544 L 901.5476992143663 56.10596903022571 Z" stroke-linejoin="bevel" stroke-miterlimit="10"/><rect fill="#fc8d59" stroke="none" x="984.4320987654323" y="257.0600009070965" width="74.59595959595958" height="286.9399990929035"/><path fill="none" stroke="#1f77b4" paint-order="fill stroke markers" d=" M 984.4320987654323 257.0600009070965 L 1059.028058361392 257.0600009070965 L 1059.028058361392 544 L 984.4320987654323 544 L 984.4320987654323 257.0600009070965 Z" stroke-linejoin="bevel" stroke-miterlimit="10"/><rect fill="#99d594" stroke="none" x="1183.3546576879917" y="448.51109224123564" width="74.59595959595936" height="95.48890775876436"/><path fill="none" stroke="#1f77b4" paint-order="fill stroke markers" d=" M 1183.3546576879917 448.51109224123564 L 1257.950617283951 448.51109224123564 L 1257.950617283951 544 L 1183.3546576879917 544 L 1183.3546576879917 448.51109224123564 Z" stroke-linejoin="bevel" stroke-miterlimit="10"/><rect fill="#ffffbf" stroke="none" x="1266.2390572390577" y="172.41182403848353" width="74.59595959595981" height="371.58817596151647"/><path fill="none" stroke="#1f77b4" paint-order="fill stroke markers" d=" M 1266.2390572390577 172.41182403848353 L 1340.8350168350175 172.41182403848353 L 1340.8350168350175 544 L 1266.2390572390577 544 L 1266.2390572390577 172.41182403848353 Z" stroke-linejoin="bevel" stroke-miterlimit="10"/><rect fill="#fc8d59" stroke="none" x="1349.1234567901238" y="258.2308683176361" width="74.59595959595981" height="285.7691316823639"/><path fill="none" stroke="#1f77b4" paint-order="fill stroke markers" d=" M 1349.1234567901238 258.2308683176361 L 1423.7194163860836 258.2308683176361 L 1423.7194163860836 544 L 1349.1234567901238 544 L 1349.1234567901238 258.2308683176361 Z" stroke-linejoin="bevel" stroke-miterlimit="10"/></g></g></g><g clip-path="url(#HTNFAdPeQXBi)"><g/></g><g><g fill="grey" stroke="lightgrey" stroke-linejoin="bevel" stroke-miterlimit="10" stroke-width="2"><path fill="none" stroke="black" paint-order="fill stroke markers" d=" M 18 544 L 1495 544" stroke-linejoin="bevel" stroke-miterlimit="10"/><path fill="none" stroke="black" paint-order="fill stroke markers" d=" M 127 550 L 127 542" stroke-linejoin="bevel" stroke-miterlimit="10"/><path fill="none" stroke="black" paint-order="fill stroke markers" d=" M 209 550 L 209 542" stroke-linejoin="bevel" stroke-miterlimit="10"/><path fill="none" stroke="black" paint-order="fill stroke markers" d=" M 292 550 L 292 542" stroke-linejoin="bevel" stroke-miterlimit="10"/><path fill="none" stroke="black" paint-order="fill stroke markers" d=" M 491 550 L 491 542" stroke-linejoin="bevel" stroke-miterlimit="10"/><path fill="none" stroke="black" paint-order="fill stroke markers" d=" M 574 550 L 574 542" stroke-linejoin="bevel" stroke-miterlimit="10"/><path fill="none" stroke="black" paint-order="fill stroke markers" d=" M 657 550 L 657 542" stroke-linejoin="bevel" stroke-miterlimit="10"/><path fill="none" stroke="black" paint-order="fill stroke markers" d=" M 856 550 L 856 542" stroke-linejoin="bevel" stroke-miterlimit="10"/><path fill="none" stroke="black" paint-order="fill stroke markers" d=" M 939 550 L 939 542" stroke-linejoin="bevel" stroke-miterlimit="10"/><path fill="none" stroke="black" paint-order="fill stroke markers" d=" M 1022 550 L 1022 542" stroke-linejoin="bevel" stroke-miterlimit="10"/><path fill="none" stroke="black" paint-order="fill stroke markers" d=" M 1221 550 L 1221 542" stroke-linejoin="bevel" stroke-miterlimit="10"/><path fill="none" stroke="black" paint-order="fill stroke markers" d=" M 1304 550 L 1304 542" stroke-linejoin="bevel" stroke-miterlimit="10"/><path fill="" stroke="" paint-order="fill stroke markers" d=" M 1386 550 L 1386 542" stroke-linejoin="bevel" stroke-miterlimit="10"/><g transform="translate(127,555) rotate(-57.29577951308232,0,0)"><text fill="" stroke="none" font-family="helvetica" font-size="11pt" font-style="normal" font-weight="normal" text-decoration="normal" x="0" y="0" text-anchor="end" dominant-baseline="central">AUC</text><g transform="rotate(57.29577951308232,0,0) translate(-127,-555) translate(209,555) rotate(-57.29577951308232,0,0)"><text fill="" stroke="none" font-family="helvetica" font-size="11pt" font-style="normal" font-weight="normal" text-decoration="normal" x="0" y="0" text-anchor="end" dominant-baseline="central">F-SCORE</text><g transform="rotate(57.29577951308232,0,0) translate(-209,-555) translate(292,555) rotate(-57.29577951308232,0,0)"><text fill="" stroke="none" font-family="helvetica" font-size="11pt" font-style="normal" font-weight="normal" text-decoration="normal" x="0" y="0" text-anchor="end" dominant-baseline="central">G-MEAN</text><g transform="rotate(57.29577951308232,0,0) translate(-292,-555) translate(491,555) rotate(-57.29577951308232,0,0)"><text fill="" stroke="none" font-family="helvetica" font-size="11pt" font-style="normal" font-weight="normal" text-decoration="normal" x="0" y="0" text-anchor="end" dominant-baseline="central">AUC</text><g transform="rotate(57.29577951308232,0,0) translate(-491,-555) translate(574,555) rotate(-57.29577951308232,0,0)"><text fill="" stroke="none" font-family="helvetica" font-size="11pt" font-style="normal" font-weight="normal" text-decoration="normal" x="0" y="0" text-anchor="end" dominant-baseline="central">F-SCORE</text><g transform="rotate(57.29577951308232,0,0) translate(-574,-555) translate(657,555) rotate(-57.29577951308232,0,0)"><text fill="" stroke="none" font-family="helvetica" font-size="11pt" font-style="normal" font-weight="normal" text-decoration="normal" x="0" y="0" text-anchor="end" dominant-baseline="central">G-MEAN</text><g transform="rotate(57.29577951308232,0,0) translate(-657,-555) translate(856,555) rotate(-57.29577951308232,0,0)"><text fill="" stroke="none" font-family="helvetica" font-size="11pt" font-style="normal" font-weight="normal" text-decoration="normal" x="0" y="0" text-anchor="end" dominant-baseline="central">AUC</text><g transform="rotate(57.29577951308232,0,0) translate(-856,-555) translate(939,555) rotate(-57.29577951308232,0,0)"><text fill="" stroke="none" font-family="helvetica" font-size="11pt" font-style="normal" font-weight="normal" text-decoration="normal" x="0" y="0" text-anchor="end" dominant-baseline="central">F-SCORE</text><g transform="rotate(57.29577951308232,0,0) translate(-939,-555) translate(1022,555) rotate(-57.29577951308232,0,0)"><text fill="" stroke="none" font-family="helvetica" font-size="11pt" font-style="normal" font-weight="normal" text-decoration="normal" x="0" y="0" text-anchor="end" dominant-baseline="central">G-MEAN</text><g transform="rotate(57.29577951308232,0,0) translate(-1022,-555) translate(1221,555) rotate(-57.29577951308232,0,0)"><text fill="" stroke="none" font-family="helvetica" font-size="11pt" font-style="normal" font-weight="normal" text-decoration="normal" x="0" y="0" text-anchor="end" dominant-baseline="central">AUC</text><g transform="rotate(57.29577951308232,0,0) translate(-1221,-555) translate(1304,555) rotate(-57.29577951308232,0,0)"><text fill="" stroke="none" font-family="helvetica" font-size="11pt" font-style="normal" font-weight="normal" text-decoration="normal" x="0" y="0" text-anchor="end" dominant-baseline="central">F-SCORE</text><g transform="rotate(57.29577951308232,0,0) translate(-1304,-555) translate(1386,555) rotate(-57.29577951308232,0,0)"><text fill="" stroke="none" font-family="helvetica" font-size="11pt" font-style="normal" font-weight="normal" text-decoration="normal" x="0" y="0" text-anchor="end" dominant-baseline="central">G-MEAN</text><g transform="rotate(57.29577951308232,0,0) translate(-1386,-555) translate(209,627) rotate(0,0,0)"><text fill="" stroke="none" font-family="helvetica" font-size="14pt" font-style="normal" font-weight="bold" text-decoration="normal" x="0" y="0" text-anchor="middle" dominant-baseline="hanging">LR</text><g transform="rotate(0,0,0) translate(-209,-627) translate(574,627) rotate(0,0,0)"><text fill="" stroke="none" font-family="helvetica" font-size="14pt" font-style="normal" font-weight="bold" text-decoration="normal" x="0" y="0" text-anchor="middle" dominant-baseline="hanging">KNN</text><g transform="rotate(0,0,0) translate(-574,-627) translate(939,627) rotate(0,0,0)"><text fill="" stroke="none" font-family="helvetica" font-size="14pt" font-style="normal" font-weight="bold" text-decoration="normal" x="0" y="0" text-anchor="middle" dominant-baseline="hanging">DT</text><g transform="rotate(0,0,0) translate(-939,-627) translate(1304,627) rotate(0,0,0)"><text fill="" stroke="none" font-family="helvetica" font-size="14pt" font-style="normal" font-weight="bold" text-decoration="normal" x="0" y="0" text-anchor="middle" dominant-baseline="hanging">GBC</text><g transform="rotate(0,0,0) translate(-1304,-627)"><path fill="none" stroke="" paint-order="fill stroke markers" d=" M 392 638 L 392 547"/><path fill="none" stroke="" paint-order="fill stroke markers" d=" M 757 638 L 757 547"/><path fill="none" stroke="" paint-order="fill stroke markers" d=" M 1121 638 L 1121 547"/></g></g></g></g></g></g></g></g></g></g></g></g></g></g></g></g></g></g><g fill="#444444"><path fill="none" stroke="black" paint-order="fill stroke markers" d=" M 18 544 L 18 46" stroke-linejoin="bevel" stroke-miterlimit="10"/><path fill="none" stroke="black" paint-order="fill stroke markers" d=" M 12 544 L 20 544" stroke-linejoin="bevel" stroke-miterlimit="10"/><path fill="none" stroke="black" paint-order="fill stroke markers" d=" M 12 420 L 20 420" stroke-linejoin="bevel" stroke-miterlimit="10"/><path fill="none" stroke="black" paint-order="fill stroke markers" d=" M 12 295 L 20 295" stroke-linejoin="bevel" stroke-miterlimit="10"/><path fill="none" stroke="black" paint-order="fill stroke markers" d=" M 12 171 L 20 171" stroke-linejoin="bevel" stroke-miterlimit="10"/><path fill="none" stroke="black" paint-order="fill stroke markers" d=" M 12 46 L 20 46" stroke-linejoin="bevel" stroke-miterlimit="10"/><path fill="none" stroke="black" paint-order="fill stroke markers" d=" M 14 544 L 18 544" stroke-linejoin="bevel" stroke-miterlimit="10"/><path fill="none" stroke="black" paint-order="fill stroke markers" d=" M 14 519 L 18 519" stroke-linejoin="bevel" stroke-miterlimit="10"/><path fill="none" stroke="black" paint-order="fill stroke markers" d=" M 14 494 L 18 494" stroke-linejoin="bevel" stroke-miterlimit="10"/><path fill="none" stroke="black" paint-order="fill stroke markers" d=" M 14 469 L 18 469" stroke-linejoin="bevel" stroke-miterlimit="10"/><path fill="none" stroke="black" paint-order="fill stroke markers" d=" M 14 444 L 18 444" stroke-linejoin="bevel" stroke-miterlimit="10"/><path fill="none" stroke="black" paint-order="fill stroke markers" d=" M 14 420 L 18 420" stroke-linejoin="bevel" stroke-miterlimit="10"/><path fill="none" stroke="black" paint-order="fill stroke markers" d=" M 14 395 L 18 395" stroke-linejoin="bevel" stroke-miterlimit="10"/><path fill="none" stroke="black" paint-order="fill stroke markers" d=" M 14 370 L 18 370" stroke-linejoin="bevel" stroke-miterlimit="10"/><path fill="none" stroke="black" paint-order="fill stroke markers" d=" M 14 345 L 18 345" stroke-linejoin="bevel" stroke-miterlimit="10"/><path fill="none" stroke="black" paint-order="fill stroke markers" d=" M 14 320 L 18 320" stroke-linejoin="bevel" stroke-miterlimit="10"/><path fill="none" stroke="black" paint-order="fill stroke markers" d=" M 14 295 L 18 295" stroke-linejoin="bevel" stroke-miterlimit="10"/><path fill="none" stroke="black" paint-order="fill stroke markers" d=" M 14 270 L 18 270" stroke-linejoin="bevel" stroke-miterlimit="10"/><path fill="none" stroke="black" paint-order="fill stroke markers" d=" M 14 245 L 18 245" stroke-linejoin="bevel" stroke-miterlimit="10"/><path fill="none" stroke="black" paint-order="fill stroke markers" d=" M 14 220 L 18 220" stroke-linejoin="bevel" stroke-miterlimit="10"/><path fill="none" stroke="black" paint-order="fill stroke markers" d=" M 14 195 L 18 195" stroke-linejoin="bevel" stroke-miterlimit="10"/><path fill="none" stroke="black" paint-order="fill stroke markers" d=" M 14 171 L 18 171" stroke-linejoin="bevel" stroke-miterlimit="10"/><path fill="none" stroke="black" paint-order="fill stroke markers" d=" M 14 146 L 18 146" stroke-linejoin="bevel" stroke-miterlimit="10"/><path fill="none" stroke="black" paint-order="fill stroke markers" d=" M 14 121 L 18 121" stroke-linejoin="bevel" stroke-miterlimit="10"/><path fill="none" stroke="black" paint-order="fill stroke markers" d=" M 14 96 L 18 96" stroke-linejoin="bevel" stroke-miterlimit="10"/><path fill="none" stroke="black" paint-order="fill stroke markers" d=" M 14 71 L 18 71" stroke-linejoin="bevel" stroke-miterlimit="10"/><path fill="" stroke="black" paint-order="fill stroke markers" d=" M 14 46 L 18 46" stroke-linejoin="bevel" stroke-miterlimit="10"/><g transform="translate(7,544) rotate(0,0,0)"><text fill="" stroke="none" font-family="helvetica" font-size="8pt" font-style="normal" font-weight="normal" text-decoration="normal" x="0" y="0" text-anchor="end" dominant-baseline="central">0</text><g transform="rotate(0,0,0) translate(-7,-544) translate(7,420) rotate(0,0,0)"><text fill="" stroke="none" font-family="helvetica" font-size="8pt" font-style="normal" font-weight="normal" text-decoration="normal" x="0" y="0" text-anchor="end" dominant-baseline="central">2</text><g transform="rotate(0,0,0) translate(-7,-420) translate(7,295) rotate(0,0,0)"><text fill="" stroke="none" font-family="helvetica" font-size="8pt" font-style="normal" font-weight="normal" text-decoration="normal" x="0" y="0" text-anchor="end" dominant-baseline="central">4</text><g transform="rotate(0,0,0) translate(-7,-295) translate(7,171) rotate(0,0,0)"><text fill="" stroke="none" font-family="helvetica" font-size="8pt" font-style="normal" font-weight="normal" text-decoration="normal" x="0" y="0" text-anchor="end" dominant-baseline="central">6</text><g transform="rotate(0,0,0) translate(-7,-171) translate(7,46) rotate(0,0,0)"><text fill="" stroke="none" font-family="helvetica" font-size="8pt" font-style="normal" font-weight="normal" text-decoration="normal" x="0" y="0" text-anchor="end" dominant-baseline="central">8</text><g transform="rotate(0,0,0) translate(-7,-46)"/></g></g></g></g></g></g><g fill="#444444"><path fill="" stroke="none" d=""/><g transform="translate(18,41)"><path fill="none" stroke="none"/><text fill="" stroke="none" font-family="helvetica" font-size="20pt" font-style="normal" font-weight="bold" text-decoration="normal" x="0" y="0" text-anchor="start" dominant-baseline="text-after-edge">G-SMOTE and SMOTE percentage difference</text></g></g></g></g></g></svg>