<svg version="1.1" xmlns="http://www.w3.org/2000/svg" xmlns:xlink="http://www.w3.org/1999/xlink" width="600" height="250" style="width: 600px; height: 250px;"><defs><clipPath id="miLamgbOzgcg"><path fill="none" stroke="none" d=" M 31 31 L 595 31 L 595 207 L 31 207 L 31 31 Z"/></clipPath><clipPath id="dwMlrgsZCfHI"><path fill="none" stroke="none" d=" M 31 31 L 595 31 L 595 207 L 31 207 L 31 31 Z"/></clipPath></defs><g><g transform="scale(1,1) translate(0.5,0.5)"><rect fill="#FFFFFF" stroke="none" x="0" y="0" width="600" height="250"/><rect fill="#ffffff" stroke="none" x="0" y="0" width="600" height="250"/><rect fill="#FFFFFF" stroke="none" x="31" y="31" width="564" height="176"/><rect fill="#ffffff" stroke="none" x="31" y="31" width="564" height="176"/><g><rect fill="none" stroke="#e5e5e5" x="31" y="31" width="564" height="176" stroke-linejoin="bevel" stroke-miterlimit="10"/></g><g clip-path="url(#miLamgbOzgcg)"><g><g><path fill="none" stroke="#e5e5e5" paint-order="fill stroke markers" d=" M 93 207 L 93 31" stroke-linejoin="bevel" stroke-miterlimit="10"/><path fill="none" stroke="#e5e5e5" paint-order="fill stroke markers" d=" M 167 207 L 167 31" stroke-linejoin="bevel" stroke-miterlimit="10"/><path fill="none" stroke="#e5e5e5" paint-order="fill stroke markers" d=" M 240 207 L 240 31" stroke-linejoin="bevel" stroke-miterlimit="10"/><path fill="none" stroke="#e5e5e5" paint-order="fill stroke markers" d=" M 313 207 L 313 31" stroke-linejoin="bevel" stroke-miterlimit="10"/><path fill="none" stroke="#e5e5e5" paint-order="fill stroke markers" d=" M 386 207 L 386 31" stroke-linejoin="bevel" stroke-miterlimit="10"/><path fill="none" stroke="#e5e5e5" paint-order="fill stroke markers" d=" M 459 207 L 459 31" stroke-linejoin="bevel" stroke-miterlimit="10"/><path fill="none" stroke="#e5e5e5" paint-order="fill stroke markers" d=" M 533 207 L 533 31" stroke-linejoin="bevel" stroke-miterlimit="10"/></g><g><path fill="none" stroke="#e5e5e5" paint-order="fill stroke markers" d=" M 31 172 L 595 172" stroke-linejoin="bevel" stroke-miterlimit="10"/><path fill="none" stroke="#e5e5e5" paint-order="fill stroke markers" d=" M 31 137 L 595 137" stroke-linejoin="bevel" stroke-miterlimit="10"/><path fill="none" stroke="#e5e5e5" paint-order="fill stroke markers" d=" M 31 101 L 595 101" stroke-linejoin="bevel" stroke-miterlimit="10"/><path fill="none" stroke="#e5e5e5" paint-order="fill stroke markers" d=" M 31 66 L 595 66" stroke-linejoin="bevel" stroke-miterlimit="10"/><path fill="none" stroke="#e5e5e5" paint-order="fill stroke markers" d=" M 31 31 L 595 31" stroke-linejoin="bevel" stroke-miterlimit="10"/></g><g><path fill="none" stroke="none"/><rect fill="#1f77b4" stroke="none" x="60.2987012987013" y="176.0058655079511" width="65.92207792207793" height="30.994134492048886"/><path fill="none" stroke="#1f77b4" paint-order="fill stroke markers" d=" M 60.2987012987013 176.0058655079511 L 126.22077922077924 176.0058655079511 L 126.22077922077924 207 L 60.2987012987013 207 L 60.2987012987013 176.0058655079511 Z" stroke-linejoin="bevel" stroke-miterlimit="10"/><rect fill="#1f77b4" stroke="none" x="133.5454545454546" y="180.23355080656535" width="65.9220779220779" height="26.766449193434653"/><path fill="none" stroke="#1f77b4" paint-order="fill stroke markers" d=" M 133.5454545454546 180.23355080656535 L 199.4675324675325 180.23355080656535 L 199.4675324675325 207 L 133.5454545454546 207 L 133.5454545454546 180.23355080656535 Z" stroke-linejoin="bevel" stroke-miterlimit="10"/><rect fill="#1f77b4" stroke="none" x="206.79220779220782" y="183.0809035234554" width="65.92207792207796" height="23.91909647654461"/><path fill="none" stroke="#1f77b4" paint-order="fill stroke markers" d=" M 206.79220779220782 183.0809035234554 L 272.7142857142858 183.0809035234554 L 272.7142857142858 207 L 206.79220779220782 207 L 206.79220779220782 183.0809035234554 Z" stroke-linejoin="bevel" stroke-miterlimit="10"/><rect fill="#1f77b4" stroke="none" x="280.038961038961" y="183.4409902839052" width="65.92207792207796" height="23.559009716094806"/><path fill="none" stroke="#1f77b4" paint-order="fill stroke markers" d=" M 280.038961038961 183.4409902839052 L 345.961038961039 183.4409902839052 L 345.961038961039 207 L 280.038961038961 207 L 280.038961038961 183.4409902839052 Z" stroke-linejoin="bevel" stroke-miterlimit="10"/><rect fill="#1f77b4" stroke="none" x="353.28571428571433" y="183.64103848415508" width="65.92207792207796" height="23.358961515844925"/><path fill="none" stroke="#1f77b4" paint-order="fill stroke markers" d=" M 353.28571428571433 183.64103848415508 L 419.2077922077923 183.64103848415508 L 419.2077922077923 207 L 353.28571428571433 207 L 353.28571428571433 183.64103848415508 Z" stroke-linejoin="bevel" stroke-miterlimit="10"/><rect fill="#1f77b4" stroke="none" x="426.53246753246754" y="183.46766337727183" width="65.92207792207796" height="23.532336622728167"/><path fill="none" stroke="#1f77b4" paint-order="fill stroke markers" d=" M 426.53246753246754 183.46766337727183 L 492.4545454545455 183.46766337727183 L 492.4545454545455 207 L 426.53246753246754 207 L 426.53246753246754 183.46766337727183 Z" stroke-linejoin="bevel" stroke-miterlimit="10"/><rect fill="#1f77b4" stroke="none" x="499.77922077922085" y="183.14758625687202" width="65.92207792207796" height="23.852413743127983"/><path fill="none" stroke="#1f77b4" paint-order="fill stroke markers" d=" M 499.77922077922085 183.14758625687202 L 565.7012987012988 183.14758625687202 L 565.7012987012988 207 L 499.77922077922085 207 L 499.77922077922085 183.14758625687202 Z" stroke-linejoin="bevel" stroke-miterlimit="10"/></g></g></g><g clip-path="url(#dwMlrgsZCfHI)"><g/></g><g><g fill="#444444"><path fill="none" stroke="black" paint-order="fill stroke markers" d=" M 31 207 L 595 207" stroke-linejoin="bevel" stroke-miterlimit="10"/><path fill="none" stroke="black" paint-order="fill stroke markers" d=" M 93 213 L 93 205" stroke-linejoin="bevel" stroke-miterlimit="10"/><path fill="none" stroke="black" paint-order="fill stroke markers" d=" M 167 213 L 167 205" stroke-linejoin="bevel" stroke-miterlimit="10"/><path fill="none" stroke="black" paint-order="fill stroke markers" d=" M 240 213 L 240 205" stroke-linejoin="bevel" stroke-miterlimit="10"/><path fill="none" stroke="black" paint-order="fill stroke markers" d=" M 313 213 L 313 205" stroke-linejoin="bevel" stroke-miterlimit="10"/><path fill="none" stroke="black" paint-order="fill stroke markers" d=" M 386 213 L 386 205" stroke-linejoin="bevel" stroke-miterlimit="10"/><path fill="none" stroke="black" paint-order="fill stroke markers" d=" M 459 213 L 459 205" stroke-linejoin="bevel" stroke-miterlimit="10"/><path fill="" stroke="black" paint-order="fill stroke markers" d=" M 533 213 L 533 205" stroke-linejoin="bevel" stroke-miterlimit="10"/><g transform="translate(93,218) rotate(-57.29577951308232,0,0)"><text fill="" stroke="none" font-family="helvetica" font-size="11pt" font-style="normal" font-weight="normal" text-decoration="normal" x="0" y="0" text-anchor="end" dominant-baseline="central">-1.0</text><g transform="rotate(57.29577951308232,0,0) translate(-93,-218) translate(167,218) rotate(-57.29577951308232,0,0)"><text fill="" stroke="none" font-family="helvetica" font-size="11pt" font-style="normal" font-weight="normal" text-decoration="normal" x="0" y="0" text-anchor="end" dominant-baseline="central">-0.5</text><g transform="rotate(57.29577951308232,0,0) translate(-167,-218) translate(240,218) rotate(-57.29577951308232,0,0)"><text fill="" stroke="none" font-family="helvetica" font-size="11pt" font-style="normal" font-weight="normal" text-decoration="normal" x="0" y="0" text-anchor="end" dominant-baseline="central">0.0</text><g transform="rotate(57.29577951308232,0,0) translate(-240,-218) translate(313,218) rotate(-57.29577951308232,0,0)"><text fill="" stroke="none" font-family="helvetica" font-size="11pt" font-style="normal" font-weight="normal" text-decoration="normal" x="0" y="0" text-anchor="end" dominant-baseline="central">0.25</text><g transform="rotate(57.29577951308232,0,0) translate(-313,-218) translate(386,218) rotate(-57.29577951308232,0,0)"><text fill="" stroke="none" font-family="helvetica" font-size="11pt" font-style="normal" font-weight="normal" text-decoration="normal" x="0" y="0" text-anchor="end" dominant-baseline="central">0.5</text><g transform="rotate(57.29577951308232,0,0) translate(-386,-218) translate(459,218) rotate(-57.29577951308232,0,0)"><text fill="" stroke="none" font-family="helvetica" font-size="11pt" font-style="normal" font-weight="normal" text-decoration="normal" x="0" y="0" text-anchor="end" dominant-baseline="central">0.75</text><g transform="rotate(57.29577951308232,0,0) translate(-459,-218) translate(533,218) rotate(-57.29577951308232,0,0)"><text fill="" stroke="none" font-family="helvetica" font-size="11pt" font-style="normal" font-weight="normal" text-decoration="normal" x="0" y="0" text-anchor="end" dominant-baseline="central">1.0</text><g transform="rotate(57.29577951308232,0,0) translate(-533,-218)"/></g></g></g></g></g></g></g></g><g fill="#444444"><path fill="none" stroke="black" paint-order="fill stroke markers" d=" M 31 207 L 31 31" stroke-linejoin="bevel" stroke-miterlimit="10"/><path fill="none" stroke="black" paint-order="fill stroke markers" d=" M 25 207 L 33 207" stroke-linejoin="bevel" stroke-miterlimit="10"/><path fill="none" stroke="black" paint-order="fill stroke markers" d=" M 25 172 L 33 172" stroke-linejoin="bevel" stroke-miterlimit="10"/><path fill="none" stroke="black" paint-order="fill stroke markers" d=" M 25 137 L 33 137" stroke-linejoin="bevel" stroke-miterlimit="10"/><path fill="none" stroke="black" paint-order="fill stroke markers" d=" M 25 101 L 33 101" stroke-linejoin="bevel" stroke-miterlimit="10"/><path fill="none" stroke="black" paint-order="fill stroke markers" d=" M 25 66 L 33 66" stroke-linejoin="bevel" stroke-miterlimit="10"/><path fill="none" stroke="black" paint-order="fill stroke markers" d=" M 25 31 L 33 31" stroke-linejoin="bevel" stroke-miterlimit="10"/><path fill="none" stroke="black" paint-order="fill stroke markers" d=" M 27 207 L 31 207" stroke-linejoin="bevel" stroke-miterlimit="10"/><path fill="none" stroke="black" paint-order="fill stroke markers" d=" M 27 200 L 31 200" stroke-linejoin="bevel" stroke-miterlimit="10"/><path fill="none" stroke="black" paint-order="fill stroke markers" d=" M 27 193 L 31 193" stroke-linejoin="bevel" stroke-miterlimit="10"/><path fill="none" stroke="black" paint-order="fill stroke markers" d=" M 27 186 L 31 186" stroke-linejoin="bevel" stroke-miterlimit="10"/><path fill="none" stroke="black" paint-order="fill stroke markers" d=" M 27 179 L 31 179" stroke-linejoin="bevel" stroke-miterlimit="10"/><path fill="none" stroke="black" paint-order="fill stroke markers" d=" M 27 172 L 31 172" stroke-linejoin="bevel" stroke-miterlimit="10"/><path fill="none" stroke="black" paint-order="fill stroke markers" d=" M 27 165 L 31 165" stroke-linejoin="bevel" stroke-miterlimit="10"/><path fill="none" stroke="black" paint-order="fill stroke markers" d=" M 27 158 L 31 158" stroke-linejoin="bevel" stroke-miterlimit="10"/><path fill="none" stroke="black" paint-order="fill stroke markers" d=" M 27 151 L 31 151" stroke-linejoin="bevel" stroke-miterlimit="10"/><path fill="none" stroke="black" paint-order="fill stroke markers" d=" M 27 144 L 31 144" stroke-linejoin="bevel" stroke-miterlimit="10"/><path fill="none" stroke="black" paint-order="fill stroke markers" d=" M 27 137 L 31 137" stroke-linejoin="bevel" stroke-miterlimit="10"/><path fill="none" stroke="black" paint-order="fill stroke markers" d=" M 27 130 L 31 130" stroke-linejoin="bevel" stroke-miterlimit="10"/><path fill="none" stroke="black" paint-order="fill stroke markers" d=" M 27 123 L 31 123" stroke-linejoin="bevel" stroke-miterlimit="10"/><path fill="none" stroke="black" paint-order="fill stroke markers" d=" M 27 115 L 31 115" stroke-linejoin="bevel" stroke-miterlimit="10"/><path fill="none" stroke="black" paint-order="fill stroke markers" d=" M 27 108 L 31 108" stroke-linejoin="bevel" stroke-miterlimit="10"/><path fill="none" stroke="black" paint-order="fill stroke markers" d=" M 27 101 L 31 101" stroke-linejoin="bevel" stroke-miterlimit="10"/><path fill="none" stroke="black" paint-order="fill stroke markers" d=" M 27 94 L 31 94" stroke-linejoin="bevel" stroke-miterlimit="10"/><path fill="none" stroke="black" paint-order="fill stroke markers" d=" M 27 87 L 31 87" stroke-linejoin="bevel" stroke-miterlimit="10"/><path fill="none" stroke="black" paint-order="fill stroke markers" d=" M 27 80 L 31 80" stroke-linejoin="bevel" stroke-miterlimit="10"/><path fill="none" stroke="black" paint-order="fill stroke markers" d=" M 27 73 L 31 73" stroke-linejoin="bevel" stroke-miterlimit="10"/><path fill="none" stroke="black" paint-order="fill stroke markers" d=" M 27 66 L 31 66" stroke-linejoin="bevel" stroke-miterlimit="10"/><path fill="none" stroke="black" paint-order="fill stroke markers" d=" M 27 59 L 31 59" stroke-linejoin="bevel" stroke-miterlimit="10"/><path fill="none" stroke="black" paint-order="fill stroke markers" d=" M 27 52 L 31 52" stroke-linejoin="bevel" stroke-miterlimit="10"/><path fill="none" stroke="black" paint-order="fill stroke markers" d=" M 27 45 L 31 45" stroke-linejoin="bevel" stroke-miterlimit="10"/><path fill="none" stroke="black" paint-order="fill stroke markers" d=" M 27 38 L 31 38" stroke-linejoin="bevel" stroke-miterlimit="10"/><path fill="" stroke="black" paint-order="fill stroke markers" d=" M 27 31 L 31 31" stroke-linejoin="bevel" stroke-miterlimit="10"/><g transform="translate(20,207) rotate(0,0,0)"><text fill="" stroke="none" font-family="helvetica" font-size="8pt" font-style="normal" font-weight="normal" text-decoration="normal" x="0" y="0" text-anchor="end" dominant-baseline="central">0</text><g transform="rotate(0,0,0) translate(-20,-207) translate(20,172) rotate(0,0,0)"><text fill="" stroke="none" font-family="helvetica" font-size="8pt" font-style="normal" font-weight="normal" text-decoration="normal" x="0" y="0" text-anchor="end" dominant-baseline="central">20</text><g transform="rotate(0,0,0) translate(-20,-172) translate(20,137) rotate(0,0,0)"><text fill="" stroke="none" font-family="helvetica" font-size="8pt" font-style="normal" font-weight="normal" text-decoration="normal" x="0" y="0" text-anchor="end" dominant-baseline="central">40</text><g transform="rotate(0,0,0) translate(-20,-137) translate(20,101) rotate(0,0,0)"><text fill="" stroke="none" font-family="helvetica" font-size="8pt" font-style="normal" font-weight="normal" text-decoration="normal" x="0" y="0" text-anchor="end" dominant-baseline="central">60</text><g transform="rotate(0,0,0) translate(-20,-101) translate(20,66) rotate(0,0,0)"><text fill="" stroke="none" font-family="helvetica" font-size="8pt" font-style="normal" font-weight="normal" text-decoration="normal" x="0" y="0" text-anchor="end" dominant-baseline="central">80</text><g transform="rotate(0,0,0) translate(-20,-66) translate(20,31) rotate(0,0,0)"><text fill="" stroke="none" font-family="helvetica" font-size="8pt" font-style="normal" font-weight="normal" text-decoration="normal" x="0" y="0" text-anchor="end" dominant-baseline="central">100</text><g transform="rotate(0,0,0) translate(-20,-31)"/></g></g></g></g></g></g></g><g fill="#444444"><path fill="" stroke="none" d=""/><g transform="translate(31,26)"><path fill="none" stroke="none"/><text fill="" stroke="none" font-family="helvetica" font-size="12pt" font-style="normal" font-weight="bold" text-decoration="normal" x="0" y="0" text-anchor="start" dominant-baseline="text-after-edge">Truncation factor</text></g></g></g></g></g></svg>